<?xml version="1.0" encoding="utf-8" standalone="no"?>
<!DOCTYPE svg PUBLIC "-//W3C//DTD SVG 1.1//EN"
  "http://www.w3.org/Graphics/SVG/1.1/DTD/svg11.dtd">
<!-- Created with matplotlib (https://matplotlib.org/) -->
<svg height="504pt" version="1.1" viewBox="0 0 360 504" width="360pt" xmlns="http://www.w3.org/2000/svg" xmlns:xlink="http://www.w3.org/1999/xlink">
 <metadata>
  <rdf:RDF xmlns:cc="http://creativecommons.org/ns#" xmlns:dc="http://purl.org/dc/elements/1.1/" xmlns:rdf="http://www.w3.org/1999/02/22-rdf-syntax-ns#">
   <cc:Work>
    <dc:type rdf:resource="http://purl.org/dc/dcmitype/StillImage"/>
    <dc:date>2021-05-17T10:43:03.079600</dc:date>
    <dc:format>image/svg+xml</dc:format>
    <dc:creator>
     <cc:Agent>
      <dc:title>Matplotlib v3.3.2, https://matplotlib.org/</dc:title>
     </cc:Agent>
    </dc:creator>
   </cc:Work>
  </rdf:RDF>
 </metadata>
 <defs>
  <style type="text/css">*{stroke-linecap:butt;stroke-linejoin:round;}</style>
 </defs>
 <g id="figure_1">
  <g id="patch_1">
   <path d="M 0 504 
L 360 504 
L 360 0 
L 0 0 
z
" style="fill:none;"/>
  </g>
  <g id="axes_1">
   <g id="patch_2">
    <path d="M 45 219.03 
L 324 219.03 
L 324 60.48 
L 45 60.48 
z
" style="fill:#ffffff;"/>
   </g>
   <g id="patch_3">
    <path clip-path="url(#pefffdad837)" d="M 57.681818 219.03 
L 58.95 219.03 
L 58.95 218.80924 
L 57.681818 218.80924 
z
" style="fill:#1f77b4;fill-opacity:0.5;stroke:#000000;stroke-linejoin:miter;stroke-width:0.126818;"/>
   </g>
   <g id="patch_4">
    <path clip-path="url(#pefffdad837)" d="M 58.95 219.03 
L 60.218182 219.03 
L 60.218182 219.03 
L 58.95 219.03 
z
" style="fill:#1f77b4;fill-opacity:0.5;stroke:#000000;stroke-linejoin:miter;stroke-width:0.126818;"/>
   </g>
   <g id="patch_5">
    <path clip-path="url(#pefffdad837)" d="M 60.218182 219.03 
L 61.486364 219.03 
L 61.486364 219.03 
L 60.218182 219.03 
z
" style="fill:#1f77b4;fill-opacity:0.5;stroke:#000000;stroke-linejoin:miter;stroke-width:0.126818;"/>
   </g>
   <g id="patch_6">
    <path clip-path="url(#pefffdad837)" d="M 61.486364 219.03 
L 62.754545 219.03 
L 62.754545 219.03 
L 61.486364 219.03 
z
" style="fill:#1f77b4;fill-opacity:0.5;stroke:#000000;stroke-linejoin:miter;stroke-width:0.126818;"/>
   </g>
   <g id="patch_7">
    <path clip-path="url(#pefffdad837)" d="M 62.754545 219.03 
L 64.022727 219.03 
L 64.022727 219.03 
L 62.754545 219.03 
z
" style="fill:#1f77b4;fill-opacity:0.5;stroke:#000000;stroke-linejoin:miter;stroke-width:0.126818;"/>
   </g>
   <g id="patch_8">
    <path clip-path="url(#pefffdad837)" d="M 64.022727 219.03 
L 65.290909 219.03 
L 65.290909 218.58848 
L 64.022727 218.58848 
z
" style="fill:#1f77b4;fill-opacity:0.5;stroke:#000000;stroke-linejoin:miter;stroke-width:0.126818;"/>
   </g>
   <g id="patch_9">
    <path clip-path="url(#pefffdad837)" d="M 65.290909 219.03 
L 66.559091 219.03 
L 66.559091 218.80924 
L 65.290909 218.80924 
z
" style="fill:#1f77b4;fill-opacity:0.5;stroke:#000000;stroke-linejoin:miter;stroke-width:0.126818;"/>
   </g>
   <g id="patch_10">
    <path clip-path="url(#pefffdad837)" d="M 66.559091 219.03 
L 67.827273 219.03 
L 67.827273 219.03 
L 66.559091 219.03 
z
" style="fill:#1f77b4;fill-opacity:0.5;stroke:#000000;stroke-linejoin:miter;stroke-width:0.126818;"/>
   </g>
   <g id="patch_11">
    <path clip-path="url(#pefffdad837)" d="M 67.827273 219.03 
L 69.095455 219.03 
L 69.095455 218.58848 
L 67.827273 218.58848 
z
" style="fill:#1f77b4;fill-opacity:0.5;stroke:#000000;stroke-linejoin:miter;stroke-width:0.126818;"/>
   </g>
   <g id="patch_12">
    <path clip-path="url(#pefffdad837)" d="M 69.095455 219.03 
L 70.363636 219.03 
L 70.363636 219.03 
L 69.095455 219.03 
z
" style="fill:#1f77b4;fill-opacity:0.5;stroke:#000000;stroke-linejoin:miter;stroke-width:0.126818;"/>
   </g>
   <g id="patch_13">
    <path clip-path="url(#pefffdad837)" d="M 70.363636 219.03 
L 71.631818 219.03 
L 71.631818 218.80924 
L 70.363636 218.80924 
z
" style="fill:#1f77b4;fill-opacity:0.5;stroke:#000000;stroke-linejoin:miter;stroke-width:0.126818;"/>
   </g>
   <g id="patch_14">
    <path clip-path="url(#pefffdad837)" d="M 71.631818 219.03 
L 72.9 219.03 
L 72.9 219.03 
L 71.631818 219.03 
z
" style="fill:#1f77b4;fill-opacity:0.5;stroke:#000000;stroke-linejoin:miter;stroke-width:0.126818;"/>
   </g>
   <g id="patch_15">
    <path clip-path="url(#pefffdad837)" d="M 72.9 219.03 
L 74.168182 219.03 
L 74.168182 219.03 
L 72.9 219.03 
z
" style="fill:#1f77b4;fill-opacity:0.5;stroke:#000000;stroke-linejoin:miter;stroke-width:0.126818;"/>
   </g>
   <g id="patch_16">
    <path clip-path="url(#pefffdad837)" d="M 74.168182 219.03 
L 75.436364 219.03 
L 75.436364 219.03 
L 74.168182 219.03 
z
" style="fill:#1f77b4;fill-opacity:0.5;stroke:#000000;stroke-linejoin:miter;stroke-width:0.126818;"/>
   </g>
   <g id="patch_17">
    <path clip-path="url(#pefffdad837)" d="M 75.436364 219.03 
L 76.704545 219.03 
L 76.704545 219.03 
L 75.436364 219.03 
z
" style="fill:#1f77b4;fill-opacity:0.5;stroke:#000000;stroke-linejoin:miter;stroke-width:0.126818;"/>
   </g>
   <g id="patch_18">
    <path clip-path="url(#pefffdad837)" d="M 76.704545 219.03 
L 77.972727 219.03 
L 77.972727 219.03 
L 76.704545 219.03 
z
" style="fill:#1f77b4;fill-opacity:0.5;stroke:#000000;stroke-linejoin:miter;stroke-width:0.126818;"/>
   </g>
   <g id="patch_19">
    <path clip-path="url(#pefffdad837)" d="M 77.972727 219.03 
L 79.240909 219.03 
L 79.240909 219.03 
L 77.972727 219.03 
z
" style="fill:#1f77b4;fill-opacity:0.5;stroke:#000000;stroke-linejoin:miter;stroke-width:0.126818;"/>
   </g>
   <g id="patch_20">
    <path clip-path="url(#pefffdad837)" d="M 79.240909 219.03 
L 80.509091 219.03 
L 80.509091 219.03 
L 79.240909 219.03 
z
" style="fill:#1f77b4;fill-opacity:0.5;stroke:#000000;stroke-linejoin:miter;stroke-width:0.126818;"/>
   </g>
   <g id="patch_21">
    <path clip-path="url(#pefffdad837)" d="M 80.509091 219.03 
L 81.777273 219.03 
L 81.777273 218.80924 
L 80.509091 218.80924 
z
" style="fill:#1f77b4;fill-opacity:0.5;stroke:#000000;stroke-linejoin:miter;stroke-width:0.126818;"/>
   </g>
   <g id="patch_22">
    <path clip-path="url(#pefffdad837)" d="M 81.777273 219.03 
L 83.045455 219.03 
L 83.045455 219.03 
L 81.777273 219.03 
z
" style="fill:#1f77b4;fill-opacity:0.5;stroke:#000000;stroke-linejoin:miter;stroke-width:0.126818;"/>
   </g>
   <g id="patch_23">
    <path clip-path="url(#pefffdad837)" d="M 83.045455 219.03 
L 84.313636 219.03 
L 84.313636 219.03 
L 83.045455 219.03 
z
" style="fill:#1f77b4;fill-opacity:0.5;stroke:#000000;stroke-linejoin:miter;stroke-width:0.126818;"/>
   </g>
   <g id="patch_24">
    <path clip-path="url(#pefffdad837)" d="M 84.313636 219.03 
L 85.581818 219.03 
L 85.581818 219.03 
L 84.313636 219.03 
z
" style="fill:#1f77b4;fill-opacity:0.5;stroke:#000000;stroke-linejoin:miter;stroke-width:0.126818;"/>
   </g>
   <g id="patch_25">
    <path clip-path="url(#pefffdad837)" d="M 85.581818 219.03 
L 86.85 219.03 
L 86.85 218.80924 
L 85.581818 218.80924 
z
" style="fill:#1f77b4;fill-opacity:0.5;stroke:#000000;stroke-linejoin:miter;stroke-width:0.126818;"/>
   </g>
   <g id="patch_26">
    <path clip-path="url(#pefffdad837)" d="M 86.85 219.03 
L 88.118182 219.03 
L 88.118182 218.80924 
L 86.85 218.80924 
z
" style="fill:#1f77b4;fill-opacity:0.5;stroke:#000000;stroke-linejoin:miter;stroke-width:0.126818;"/>
   </g>
   <g id="patch_27">
    <path clip-path="url(#pefffdad837)" d="M 88.118182 219.03 
L 89.386364 219.03 
L 89.386364 219.03 
L 88.118182 219.03 
z
" style="fill:#1f77b4;fill-opacity:0.5;stroke:#000000;stroke-linejoin:miter;stroke-width:0.126818;"/>
   </g>
   <g id="patch_28">
    <path clip-path="url(#pefffdad837)" d="M 89.386364 219.03 
L 90.654545 219.03 
L 90.654545 219.03 
L 89.386364 219.03 
z
" style="fill:#1f77b4;fill-opacity:0.5;stroke:#000000;stroke-linejoin:miter;stroke-width:0.126818;"/>
   </g>
   <g id="patch_29">
    <path clip-path="url(#pefffdad837)" d="M 90.654545 219.03 
L 91.922727 219.03 
L 91.922727 219.03 
L 90.654545 219.03 
z
" style="fill:#1f77b4;fill-opacity:0.5;stroke:#000000;stroke-linejoin:miter;stroke-width:0.126818;"/>
   </g>
   <g id="patch_30">
    <path clip-path="url(#pefffdad837)" d="M 91.922727 219.03 
L 93.190909 219.03 
L 93.190909 219.03 
L 91.922727 219.03 
z
" style="fill:#1f77b4;fill-opacity:0.5;stroke:#000000;stroke-linejoin:miter;stroke-width:0.126818;"/>
   </g>
   <g id="patch_31">
    <path clip-path="url(#pefffdad837)" d="M 93.190909 219.03 
L 94.459091 219.03 
L 94.459091 218.58848 
L 93.190909 218.58848 
z
" style="fill:#1f77b4;fill-opacity:0.5;stroke:#000000;stroke-linejoin:miter;stroke-width:0.126818;"/>
   </g>
   <g id="patch_32">
    <path clip-path="url(#pefffdad837)" d="M 94.459091 219.03 
L 95.727273 219.03 
L 95.727273 218.80924 
L 94.459091 218.80924 
z
" style="fill:#1f77b4;fill-opacity:0.5;stroke:#000000;stroke-linejoin:miter;stroke-width:0.126818;"/>
   </g>
   <g id="patch_33">
    <path clip-path="url(#pefffdad837)" d="M 95.727273 219.03 
L 96.995455 219.03 
L 96.995455 218.367719 
L 95.727273 218.367719 
z
" style="fill:#1f77b4;fill-opacity:0.5;stroke:#000000;stroke-linejoin:miter;stroke-width:0.126818;"/>
   </g>
   <g id="patch_34">
    <path clip-path="url(#pefffdad837)" d="M 96.995455 219.03 
L 98.263636 219.03 
L 98.263636 218.80924 
L 96.995455 218.80924 
z
" style="fill:#1f77b4;fill-opacity:0.5;stroke:#000000;stroke-linejoin:miter;stroke-width:0.126818;"/>
   </g>
   <g id="patch_35">
    <path clip-path="url(#pefffdad837)" d="M 98.263636 219.03 
L 99.531818 219.03 
L 99.531818 218.80924 
L 98.263636 218.80924 
z
" style="fill:#1f77b4;fill-opacity:0.5;stroke:#000000;stroke-linejoin:miter;stroke-width:0.126818;"/>
   </g>
   <g id="patch_36">
    <path clip-path="url(#pefffdad837)" d="M 99.531818 219.03 
L 100.8 219.03 
L 100.8 218.58848 
L 99.531818 218.58848 
z
" style="fill:#1f77b4;fill-opacity:0.5;stroke:#000000;stroke-linejoin:miter;stroke-width:0.126818;"/>
   </g>
   <g id="patch_37">
    <path clip-path="url(#pefffdad837)" d="M 100.8 219.03 
L 102.068182 219.03 
L 102.068182 219.03 
L 100.8 219.03 
z
" style="fill:#1f77b4;fill-opacity:0.5;stroke:#000000;stroke-linejoin:miter;stroke-width:0.126818;"/>
   </g>
   <g id="patch_38">
    <path clip-path="url(#pefffdad837)" d="M 102.068182 219.03 
L 103.336364 219.03 
L 103.336364 219.03 
L 102.068182 219.03 
z
" style="fill:#1f77b4;fill-opacity:0.5;stroke:#000000;stroke-linejoin:miter;stroke-width:0.126818;"/>
   </g>
   <g id="patch_39">
    <path clip-path="url(#pefffdad837)" d="M 103.336364 219.03 
L 104.604545 219.03 
L 104.604545 218.80924 
L 103.336364 218.80924 
z
" style="fill:#1f77b4;fill-opacity:0.5;stroke:#000000;stroke-linejoin:miter;stroke-width:0.126818;"/>
   </g>
   <g id="patch_40">
    <path clip-path="url(#pefffdad837)" d="M 104.604545 219.03 
L 105.872727 219.03 
L 105.872727 218.367719 
L 104.604545 218.367719 
z
" style="fill:#1f77b4;fill-opacity:0.5;stroke:#000000;stroke-linejoin:miter;stroke-width:0.126818;"/>
   </g>
   <g id="patch_41">
    <path clip-path="url(#pefffdad837)" d="M 105.872727 219.03 
L 107.140909 219.03 
L 107.140909 218.58848 
L 105.872727 218.58848 
z
" style="fill:#1f77b4;fill-opacity:0.5;stroke:#000000;stroke-linejoin:miter;stroke-width:0.126818;"/>
   </g>
   <g id="patch_42">
    <path clip-path="url(#pefffdad837)" d="M 107.140909 219.03 
L 108.409091 219.03 
L 108.409091 218.146959 
L 107.140909 218.146959 
z
" style="fill:#1f77b4;fill-opacity:0.5;stroke:#000000;stroke-linejoin:miter;stroke-width:0.126818;"/>
   </g>
   <g id="patch_43">
    <path clip-path="url(#pefffdad837)" d="M 108.409091 219.03 
L 109.677273 219.03 
L 109.677273 219.03 
L 108.409091 219.03 
z
" style="fill:#1f77b4;fill-opacity:0.5;stroke:#000000;stroke-linejoin:miter;stroke-width:0.126818;"/>
   </g>
   <g id="patch_44">
    <path clip-path="url(#pefffdad837)" d="M 109.677273 219.03 
L 110.945455 219.03 
L 110.945455 218.80924 
L 109.677273 218.80924 
z
" style="fill:#1f77b4;fill-opacity:0.5;stroke:#000000;stroke-linejoin:miter;stroke-width:0.126818;"/>
   </g>
   <g id="patch_45">
    <path clip-path="url(#pefffdad837)" d="M 110.945455 219.03 
L 112.213636 219.03 
L 112.213636 218.80924 
L 110.945455 218.80924 
z
" style="fill:#1f77b4;fill-opacity:0.5;stroke:#000000;stroke-linejoin:miter;stroke-width:0.126818;"/>
   </g>
   <g id="patch_46">
    <path clip-path="url(#pefffdad837)" d="M 112.213636 219.03 
L 113.481818 219.03 
L 113.481818 217.926199 
L 112.213636 217.926199 
z
" style="fill:#1f77b4;fill-opacity:0.5;stroke:#000000;stroke-linejoin:miter;stroke-width:0.126818;"/>
   </g>
   <g id="patch_47">
    <path clip-path="url(#pefffdad837)" d="M 113.481818 219.03 
L 114.75 219.03 
L 114.75 218.80924 
L 113.481818 218.80924 
z
" style="fill:#1f77b4;fill-opacity:0.5;stroke:#000000;stroke-linejoin:miter;stroke-width:0.126818;"/>
   </g>
   <g id="patch_48">
    <path clip-path="url(#pefffdad837)" d="M 114.75 219.03 
L 116.018182 219.03 
L 116.018182 218.58848 
L 114.75 218.58848 
z
" style="fill:#1f77b4;fill-opacity:0.5;stroke:#000000;stroke-linejoin:miter;stroke-width:0.126818;"/>
   </g>
   <g id="patch_49">
    <path clip-path="url(#pefffdad837)" d="M 116.018182 219.03 
L 117.286364 219.03 
L 117.286364 218.367719 
L 116.018182 218.367719 
z
" style="fill:#1f77b4;fill-opacity:0.5;stroke:#000000;stroke-linejoin:miter;stroke-width:0.126818;"/>
   </g>
   <g id="patch_50">
    <path clip-path="url(#pefffdad837)" d="M 117.286364 219.03 
L 118.554545 219.03 
L 118.554545 218.80924 
L 117.286364 218.80924 
z
" style="fill:#1f77b4;fill-opacity:0.5;stroke:#000000;stroke-linejoin:miter;stroke-width:0.126818;"/>
   </g>
   <g id="patch_51">
    <path clip-path="url(#pefffdad837)" d="M 118.554545 219.03 
L 119.822727 219.03 
L 119.822727 218.80924 
L 118.554545 218.80924 
z
" style="fill:#1f77b4;fill-opacity:0.5;stroke:#000000;stroke-linejoin:miter;stroke-width:0.126818;"/>
   </g>
   <g id="patch_52">
    <path clip-path="url(#pefffdad837)" d="M 119.822727 219.03 
L 121.090909 219.03 
L 121.090909 218.80924 
L 119.822727 218.80924 
z
" style="fill:#1f77b4;fill-opacity:0.5;stroke:#000000;stroke-linejoin:miter;stroke-width:0.126818;"/>
   </g>
   <g id="patch_53">
    <path clip-path="url(#pefffdad837)" d="M 121.090909 219.03 
L 122.359091 219.03 
L 122.359091 218.58848 
L 121.090909 218.58848 
z
" style="fill:#1f77b4;fill-opacity:0.5;stroke:#000000;stroke-linejoin:miter;stroke-width:0.126818;"/>
   </g>
   <g id="patch_54">
    <path clip-path="url(#pefffdad837)" d="M 122.359091 219.03 
L 123.627273 219.03 
L 123.627273 218.80924 
L 122.359091 218.80924 
z
" style="fill:#1f77b4;fill-opacity:0.5;stroke:#000000;stroke-linejoin:miter;stroke-width:0.126818;"/>
   </g>
   <g id="patch_55">
    <path clip-path="url(#pefffdad837)" d="M 123.627273 219.03 
L 124.895455 219.03 
L 124.895455 218.367719 
L 123.627273 218.367719 
z
" style="fill:#1f77b4;fill-opacity:0.5;stroke:#000000;stroke-linejoin:miter;stroke-width:0.126818;"/>
   </g>
   <g id="patch_56">
    <path clip-path="url(#pefffdad837)" d="M 124.895455 219.03 
L 126.163636 219.03 
L 126.163636 217.705439 
L 124.895455 217.705439 
z
" style="fill:#1f77b4;fill-opacity:0.5;stroke:#000000;stroke-linejoin:miter;stroke-width:0.126818;"/>
   </g>
   <g id="patch_57">
    <path clip-path="url(#pefffdad837)" d="M 126.163636 219.03 
L 127.431818 219.03 
L 127.431818 218.367719 
L 126.163636 218.367719 
z
" style="fill:#1f77b4;fill-opacity:0.5;stroke:#000000;stroke-linejoin:miter;stroke-width:0.126818;"/>
   </g>
   <g id="patch_58">
    <path clip-path="url(#pefffdad837)" d="M 127.431818 219.03 
L 128.7 219.03 
L 128.7 217.926199 
L 127.431818 217.926199 
z
" style="fill:#1f77b4;fill-opacity:0.5;stroke:#000000;stroke-linejoin:miter;stroke-width:0.126818;"/>
   </g>
   <g id="patch_59">
    <path clip-path="url(#pefffdad837)" d="M 128.7 219.03 
L 129.968182 219.03 
L 129.968182 218.80924 
L 128.7 218.80924 
z
" style="fill:#1f77b4;fill-opacity:0.5;stroke:#000000;stroke-linejoin:miter;stroke-width:0.126818;"/>
   </g>
   <g id="patch_60">
    <path clip-path="url(#pefffdad837)" d="M 129.968182 219.03 
L 131.236364 219.03 
L 131.236364 217.926199 
L 129.968182 217.926199 
z
" style="fill:#1f77b4;fill-opacity:0.5;stroke:#000000;stroke-linejoin:miter;stroke-width:0.126818;"/>
   </g>
   <g id="patch_61">
    <path clip-path="url(#pefffdad837)" d="M 131.236364 219.03 
L 132.504545 219.03 
L 132.504545 217.705439 
L 131.236364 217.705439 
z
" style="fill:#1f77b4;fill-opacity:0.5;stroke:#000000;stroke-linejoin:miter;stroke-width:0.126818;"/>
   </g>
   <g id="patch_62">
    <path clip-path="url(#pefffdad837)" d="M 132.504545 219.03 
L 133.772727 219.03 
L 133.772727 218.58848 
L 132.504545 218.58848 
z
" style="fill:#1f77b4;fill-opacity:0.5;stroke:#000000;stroke-linejoin:miter;stroke-width:0.126818;"/>
   </g>
   <g id="patch_63">
    <path clip-path="url(#pefffdad837)" d="M 133.772727 219.03 
L 135.040909 219.03 
L 135.040909 218.80924 
L 133.772727 218.80924 
z
" style="fill:#1f77b4;fill-opacity:0.5;stroke:#000000;stroke-linejoin:miter;stroke-width:0.126818;"/>
   </g>
   <g id="patch_64">
    <path clip-path="url(#pefffdad837)" d="M 135.040909 219.03 
L 136.309091 219.03 
L 136.309091 217.263918 
L 135.040909 217.263918 
z
" style="fill:#1f77b4;fill-opacity:0.5;stroke:#000000;stroke-linejoin:miter;stroke-width:0.126818;"/>
   </g>
   <g id="patch_65">
    <path clip-path="url(#pefffdad837)" d="M 136.309091 219.03 
L 137.577273 219.03 
L 137.577273 218.367719 
L 136.309091 218.367719 
z
" style="fill:#1f77b4;fill-opacity:0.5;stroke:#000000;stroke-linejoin:miter;stroke-width:0.126818;"/>
   </g>
   <g id="patch_66">
    <path clip-path="url(#pefffdad837)" d="M 137.577273 219.03 
L 138.845455 219.03 
L 138.845455 218.146959 
L 137.577273 218.146959 
z
" style="fill:#1f77b4;fill-opacity:0.5;stroke:#000000;stroke-linejoin:miter;stroke-width:0.126818;"/>
   </g>
   <g id="patch_67">
    <path clip-path="url(#pefffdad837)" d="M 138.845455 219.03 
L 140.113636 219.03 
L 140.113636 216.601637 
L 138.845455 216.601637 
z
" style="fill:#1f77b4;fill-opacity:0.5;stroke:#000000;stroke-linejoin:miter;stroke-width:0.126818;"/>
   </g>
   <g id="patch_68">
    <path clip-path="url(#pefffdad837)" d="M 140.113636 219.03 
L 141.381818 219.03 
L 141.381818 218.80924 
L 140.113636 218.80924 
z
" style="fill:#1f77b4;fill-opacity:0.5;stroke:#000000;stroke-linejoin:miter;stroke-width:0.126818;"/>
   </g>
   <g id="patch_69">
    <path clip-path="url(#pefffdad837)" d="M 141.381818 219.03 
L 142.65 219.03 
L 142.65 218.58848 
L 141.381818 218.58848 
z
" style="fill:#1f77b4;fill-opacity:0.5;stroke:#000000;stroke-linejoin:miter;stroke-width:0.126818;"/>
   </g>
   <g id="patch_70">
    <path clip-path="url(#pefffdad837)" d="M 142.65 219.03 
L 143.918182 219.03 
L 143.918182 216.822398 
L 142.65 216.822398 
z
" style="fill:#1f77b4;fill-opacity:0.5;stroke:#000000;stroke-linejoin:miter;stroke-width:0.126818;"/>
   </g>
   <g id="patch_71">
    <path clip-path="url(#pefffdad837)" d="M 143.918182 219.03 
L 145.186364 219.03 
L 145.186364 217.705439 
L 143.918182 217.705439 
z
" style="fill:#1f77b4;fill-opacity:0.5;stroke:#000000;stroke-linejoin:miter;stroke-width:0.126818;"/>
   </g>
   <g id="patch_72">
    <path clip-path="url(#pefffdad837)" d="M 145.186364 219.03 
L 146.454545 219.03 
L 146.454545 217.926199 
L 145.186364 217.926199 
z
" style="fill:#1f77b4;fill-opacity:0.5;stroke:#000000;stroke-linejoin:miter;stroke-width:0.126818;"/>
   </g>
   <g id="patch_73">
    <path clip-path="url(#pefffdad837)" d="M 146.454545 219.03 
L 147.722727 219.03 
L 147.722727 217.705439 
L 146.454545 217.705439 
z
" style="fill:#1f77b4;fill-opacity:0.5;stroke:#000000;stroke-linejoin:miter;stroke-width:0.126818;"/>
   </g>
   <g id="patch_74">
    <path clip-path="url(#pefffdad837)" d="M 147.722727 219.03 
L 148.990909 219.03 
L 148.990909 217.263918 
L 147.722727 217.263918 
z
" style="fill:#1f77b4;fill-opacity:0.5;stroke:#000000;stroke-linejoin:miter;stroke-width:0.126818;"/>
   </g>
   <g id="patch_75">
    <path clip-path="url(#pefffdad837)" d="M 148.990909 219.03 
L 150.259091 219.03 
L 150.259091 217.926199 
L 148.990909 217.926199 
z
" style="fill:#1f77b4;fill-opacity:0.5;stroke:#000000;stroke-linejoin:miter;stroke-width:0.126818;"/>
   </g>
   <g id="patch_76">
    <path clip-path="url(#pefffdad837)" d="M 150.259091 219.03 
L 151.527273 219.03 
L 151.527273 217.926199 
L 150.259091 217.926199 
z
" style="fill:#1f77b4;fill-opacity:0.5;stroke:#000000;stroke-linejoin:miter;stroke-width:0.126818;"/>
   </g>
   <g id="patch_77">
    <path clip-path="url(#pefffdad837)" d="M 151.527273 219.03 
L 152.795455 219.03 
L 152.795455 217.043158 
L 151.527273 217.043158 
z
" style="fill:#1f77b4;fill-opacity:0.5;stroke:#000000;stroke-linejoin:miter;stroke-width:0.126818;"/>
   </g>
   <g id="patch_78">
    <path clip-path="url(#pefffdad837)" d="M 152.795455 219.03 
L 154.063636 219.03 
L 154.063636 217.043158 
L 152.795455 217.043158 
z
" style="fill:#1f77b4;fill-opacity:0.5;stroke:#000000;stroke-linejoin:miter;stroke-width:0.126818;"/>
   </g>
   <g id="patch_79">
    <path clip-path="url(#pefffdad837)" d="M 154.063636 219.03 
L 155.331818 219.03 
L 155.331818 216.160117 
L 154.063636 216.160117 
z
" style="fill:#1f77b4;fill-opacity:0.5;stroke:#000000;stroke-linejoin:miter;stroke-width:0.126818;"/>
   </g>
   <g id="patch_80">
    <path clip-path="url(#pefffdad837)" d="M 155.331818 219.03 
L 156.6 219.03 
L 156.6 217.705439 
L 155.331818 217.705439 
z
" style="fill:#1f77b4;fill-opacity:0.5;stroke:#000000;stroke-linejoin:miter;stroke-width:0.126818;"/>
   </g>
   <g id="patch_81">
    <path clip-path="url(#pefffdad837)" d="M 156.6 219.03 
L 157.868182 219.03 
L 157.868182 217.263918 
L 156.6 217.263918 
z
" style="fill:#1f77b4;fill-opacity:0.5;stroke:#000000;stroke-linejoin:miter;stroke-width:0.126818;"/>
   </g>
   <g id="patch_82">
    <path clip-path="url(#pefffdad837)" d="M 157.868182 219.03 
L 159.136364 219.03 
L 159.136364 216.601637 
L 157.868182 216.601637 
z
" style="fill:#1f77b4;fill-opacity:0.5;stroke:#000000;stroke-linejoin:miter;stroke-width:0.126818;"/>
   </g>
   <g id="patch_83">
    <path clip-path="url(#pefffdad837)" d="M 159.136364 219.03 
L 160.404545 219.03 
L 160.404545 215.277076 
L 159.136364 215.277076 
z
" style="fill:#1f77b4;fill-opacity:0.5;stroke:#000000;stroke-linejoin:miter;stroke-width:0.126818;"/>
   </g>
   <g id="patch_84">
    <path clip-path="url(#pefffdad837)" d="M 160.404545 219.03 
L 161.672727 219.03 
L 161.672727 216.822398 
L 160.404545 216.822398 
z
" style="fill:#1f77b4;fill-opacity:0.5;stroke:#000000;stroke-linejoin:miter;stroke-width:0.126818;"/>
   </g>
   <g id="patch_85">
    <path clip-path="url(#pefffdad837)" d="M 161.672727 219.03 
L 162.940909 219.03 
L 162.940909 216.822398 
L 161.672727 216.822398 
z
" style="fill:#1f77b4;fill-opacity:0.5;stroke:#000000;stroke-linejoin:miter;stroke-width:0.126818;"/>
   </g>
   <g id="patch_86">
    <path clip-path="url(#pefffdad837)" d="M 162.940909 219.03 
L 164.209091 219.03 
L 164.209091 218.146959 
L 162.940909 218.146959 
z
" style="fill:#1f77b4;fill-opacity:0.5;stroke:#000000;stroke-linejoin:miter;stroke-width:0.126818;"/>
   </g>
   <g id="patch_87">
    <path clip-path="url(#pefffdad837)" d="M 164.209091 219.03 
L 165.477273 219.03 
L 165.477273 216.822398 
L 164.209091 216.822398 
z
" style="fill:#1f77b4;fill-opacity:0.5;stroke:#000000;stroke-linejoin:miter;stroke-width:0.126818;"/>
   </g>
   <g id="patch_88">
    <path clip-path="url(#pefffdad837)" d="M 165.477273 219.03 
L 166.745455 219.03 
L 166.745455 217.043158 
L 165.477273 217.043158 
z
" style="fill:#1f77b4;fill-opacity:0.5;stroke:#000000;stroke-linejoin:miter;stroke-width:0.126818;"/>
   </g>
   <g id="patch_89">
    <path clip-path="url(#pefffdad837)" d="M 166.745455 219.03 
L 168.013636 219.03 
L 168.013636 216.160117 
L 166.745455 216.160117 
z
" style="fill:#1f77b4;fill-opacity:0.5;stroke:#000000;stroke-linejoin:miter;stroke-width:0.126818;"/>
   </g>
   <g id="patch_90">
    <path clip-path="url(#pefffdad837)" d="M 168.013636 219.03 
L 169.281818 219.03 
L 169.281818 215.277076 
L 168.013636 215.277076 
z
" style="fill:#1f77b4;fill-opacity:0.5;stroke:#000000;stroke-linejoin:miter;stroke-width:0.126818;"/>
   </g>
   <g id="patch_91">
    <path clip-path="url(#pefffdad837)" d="M 169.281818 219.03 
L 170.55 219.03 
L 170.55 215.277076 
L 169.281818 215.277076 
z
" style="fill:#1f77b4;fill-opacity:0.5;stroke:#000000;stroke-linejoin:miter;stroke-width:0.126818;"/>
   </g>
   <g id="patch_92">
    <path clip-path="url(#pefffdad837)" d="M 170.55 219.03 
L 171.818182 219.03 
L 171.818182 214.394035 
L 170.55 214.394035 
z
" style="fill:#1f77b4;fill-opacity:0.5;stroke:#000000;stroke-linejoin:miter;stroke-width:0.126818;"/>
   </g>
   <g id="patch_93">
    <path clip-path="url(#pefffdad837)" d="M 171.818182 219.03 
L 173.086364 219.03 
L 173.086364 213.731754 
L 171.818182 213.731754 
z
" style="fill:#1f77b4;fill-opacity:0.5;stroke:#000000;stroke-linejoin:miter;stroke-width:0.126818;"/>
   </g>
   <g id="patch_94">
    <path clip-path="url(#pefffdad837)" d="M 173.086364 219.03 
L 174.354545 219.03 
L 174.354545 214.394035 
L 173.086364 214.394035 
z
" style="fill:#1f77b4;fill-opacity:0.5;stroke:#000000;stroke-linejoin:miter;stroke-width:0.126818;"/>
   </g>
   <g id="patch_95">
    <path clip-path="url(#pefffdad837)" d="M 174.354545 219.03 
L 175.622727 219.03 
L 175.622727 213.731754 
L 174.354545 213.731754 
z
" style="fill:#1f77b4;fill-opacity:0.5;stroke:#000000;stroke-linejoin:miter;stroke-width:0.126818;"/>
   </g>
   <g id="patch_96">
    <path clip-path="url(#pefffdad837)" d="M 175.622727 219.03 
L 176.890909 219.03 
L 176.890909 211.303392 
L 175.622727 211.303392 
z
" style="fill:#1f77b4;fill-opacity:0.5;stroke:#000000;stroke-linejoin:miter;stroke-width:0.126818;"/>
   </g>
   <g id="patch_97">
    <path clip-path="url(#pefffdad837)" d="M 176.890909 219.03 
L 178.159091 219.03 
L 178.159091 212.848713 
L 176.890909 212.848713 
z
" style="fill:#1f77b4;fill-opacity:0.5;stroke:#000000;stroke-linejoin:miter;stroke-width:0.126818;"/>
   </g>
   <g id="patch_98">
    <path clip-path="url(#pefffdad837)" d="M 178.159091 219.03 
L 179.427273 219.03 
L 179.427273 212.627953 
L 178.159091 212.627953 
z
" style="fill:#1f77b4;fill-opacity:0.5;stroke:#000000;stroke-linejoin:miter;stroke-width:0.126818;"/>
   </g>
   <g id="patch_99">
    <path clip-path="url(#pefffdad837)" d="M 179.427273 219.03 
L 180.695455 219.03 
L 180.695455 206.888187 
L 179.427273 206.888187 
z
" style="fill:#1f77b4;fill-opacity:0.5;stroke:#000000;stroke-linejoin:miter;stroke-width:0.126818;"/>
   </g>
   <g id="patch_100">
    <path clip-path="url(#pefffdad837)" d="M 180.695455 219.03 
L 181.963636 219.03 
L 181.963636 200.706901 
L 180.695455 200.706901 
z
" style="fill:#1f77b4;fill-opacity:0.5;stroke:#000000;stroke-linejoin:miter;stroke-width:0.126818;"/>
   </g>
   <g id="patch_101">
    <path clip-path="url(#pefffdad837)" d="M 181.963636 219.03 
L 183.231818 219.03 
L 183.231818 183.708363 
L 181.963636 183.708363 
z
" style="fill:#1f77b4;fill-opacity:0.5;stroke:#000000;stroke-linejoin:miter;stroke-width:0.126818;"/>
   </g>
   <g id="patch_102">
    <path clip-path="url(#pefffdad837)" d="M 183.231818 219.03 
L 184.5 219.03 
L 184.5 68.03 
L 183.231818 68.03 
z
" style="fill:#1f77b4;fill-opacity:0.5;stroke:#000000;stroke-linejoin:miter;stroke-width:0.126818;"/>
   </g>
   <g id="patch_103">
    <path clip-path="url(#pefffdad837)" d="M 184.5 219.03 
L 185.768182 219.03 
L 185.768182 190.99345 
L 184.5 190.99345 
z
" style="fill:#1f77b4;fill-opacity:0.5;stroke:#000000;stroke-linejoin:miter;stroke-width:0.126818;"/>
   </g>
   <g id="patch_104">
    <path clip-path="url(#pefffdad837)" d="M 185.768182 219.03 
L 187.036364 219.03 
L 187.036364 206.888187 
L 185.768182 206.888187 
z
" style="fill:#1f77b4;fill-opacity:0.5;stroke:#000000;stroke-linejoin:miter;stroke-width:0.126818;"/>
   </g>
   <g id="patch_105">
    <path clip-path="url(#pefffdad837)" d="M 187.036364 219.03 
L 188.304545 219.03 
L 188.304545 211.965673 
L 187.036364 211.965673 
z
" style="fill:#1f77b4;fill-opacity:0.5;stroke:#000000;stroke-linejoin:miter;stroke-width:0.126818;"/>
   </g>
   <g id="patch_106">
    <path clip-path="url(#pefffdad837)" d="M 188.304545 219.03 
L 189.572727 219.03 
L 189.572727 213.952515 
L 188.304545 213.952515 
z
" style="fill:#1f77b4;fill-opacity:0.5;stroke:#000000;stroke-linejoin:miter;stroke-width:0.126818;"/>
   </g>
   <g id="patch_107">
    <path clip-path="url(#pefffdad837)" d="M 189.572727 219.03 
L 190.840909 219.03 
L 190.840909 215.497836 
L 189.572727 215.497836 
z
" style="fill:#1f77b4;fill-opacity:0.5;stroke:#000000;stroke-linejoin:miter;stroke-width:0.126818;"/>
   </g>
   <g id="patch_108">
    <path clip-path="url(#pefffdad837)" d="M 190.840909 219.03 
L 192.109091 219.03 
L 192.109091 215.497836 
L 190.840909 215.497836 
z
" style="fill:#1f77b4;fill-opacity:0.5;stroke:#000000;stroke-linejoin:miter;stroke-width:0.126818;"/>
   </g>
   <g id="patch_109">
    <path clip-path="url(#pefffdad837)" d="M 192.109091 219.03 
L 193.377273 219.03 
L 193.377273 217.484678 
L 192.109091 217.484678 
z
" style="fill:#1f77b4;fill-opacity:0.5;stroke:#000000;stroke-linejoin:miter;stroke-width:0.126818;"/>
   </g>
   <g id="patch_110">
    <path clip-path="url(#pefffdad837)" d="M 193.377273 219.03 
L 194.645455 219.03 
L 194.645455 217.926199 
L 193.377273 217.926199 
z
" style="fill:#1f77b4;fill-opacity:0.5;stroke:#000000;stroke-linejoin:miter;stroke-width:0.126818;"/>
   </g>
   <g id="patch_111">
    <path clip-path="url(#pefffdad837)" d="M 194.645455 219.03 
L 195.913636 219.03 
L 195.913636 217.484678 
L 194.645455 217.484678 
z
" style="fill:#1f77b4;fill-opacity:0.5;stroke:#000000;stroke-linejoin:miter;stroke-width:0.126818;"/>
   </g>
   <g id="patch_112">
    <path clip-path="url(#pefffdad837)" d="M 195.913636 219.03 
L 197.181818 219.03 
L 197.181818 217.705439 
L 195.913636 217.705439 
z
" style="fill:#1f77b4;fill-opacity:0.5;stroke:#000000;stroke-linejoin:miter;stroke-width:0.126818;"/>
   </g>
   <g id="patch_113">
    <path clip-path="url(#pefffdad837)" d="M 197.181818 219.03 
L 198.45 219.03 
L 198.45 217.926199 
L 197.181818 217.926199 
z
" style="fill:#1f77b4;fill-opacity:0.5;stroke:#000000;stroke-linejoin:miter;stroke-width:0.126818;"/>
   </g>
   <g id="patch_114">
    <path clip-path="url(#pefffdad837)" d="M 198.45 219.03 
L 199.718182 219.03 
L 199.718182 218.367719 
L 198.45 218.367719 
z
" style="fill:#1f77b4;fill-opacity:0.5;stroke:#000000;stroke-linejoin:miter;stroke-width:0.126818;"/>
   </g>
   <g id="patch_115">
    <path clip-path="url(#pefffdad837)" d="M 199.718182 219.03 
L 200.986364 219.03 
L 200.986364 218.367719 
L 199.718182 218.367719 
z
" style="fill:#1f77b4;fill-opacity:0.5;stroke:#000000;stroke-linejoin:miter;stroke-width:0.126818;"/>
   </g>
   <g id="patch_116">
    <path clip-path="url(#pefffdad837)" d="M 200.986364 219.03 
L 202.254545 219.03 
L 202.254545 218.367719 
L 200.986364 218.367719 
z
" style="fill:#1f77b4;fill-opacity:0.5;stroke:#000000;stroke-linejoin:miter;stroke-width:0.126818;"/>
   </g>
   <g id="patch_117">
    <path clip-path="url(#pefffdad837)" d="M 202.254545 219.03 
L 203.522727 219.03 
L 203.522727 218.58848 
L 202.254545 218.58848 
z
" style="fill:#1f77b4;fill-opacity:0.5;stroke:#000000;stroke-linejoin:miter;stroke-width:0.126818;"/>
   </g>
   <g id="patch_118">
    <path clip-path="url(#pefffdad837)" d="M 203.522727 219.03 
L 204.790909 219.03 
L 204.790909 218.146959 
L 203.522727 218.146959 
z
" style="fill:#1f77b4;fill-opacity:0.5;stroke:#000000;stroke-linejoin:miter;stroke-width:0.126818;"/>
   </g>
   <g id="patch_119">
    <path clip-path="url(#pefffdad837)" d="M 204.790909 219.03 
L 206.059091 219.03 
L 206.059091 218.58848 
L 204.790909 218.58848 
z
" style="fill:#1f77b4;fill-opacity:0.5;stroke:#000000;stroke-linejoin:miter;stroke-width:0.126818;"/>
   </g>
   <g id="patch_120">
    <path clip-path="url(#pefffdad837)" d="M 206.059091 219.03 
L 207.327273 219.03 
L 207.327273 218.367719 
L 206.059091 218.367719 
z
" style="fill:#1f77b4;fill-opacity:0.5;stroke:#000000;stroke-linejoin:miter;stroke-width:0.126818;"/>
   </g>
   <g id="patch_121">
    <path clip-path="url(#pefffdad837)" d="M 207.327273 219.03 
L 208.595455 219.03 
L 208.595455 218.80924 
L 207.327273 218.80924 
z
" style="fill:#1f77b4;fill-opacity:0.5;stroke:#000000;stroke-linejoin:miter;stroke-width:0.126818;"/>
   </g>
   <g id="patch_122">
    <path clip-path="url(#pefffdad837)" d="M 208.595455 219.03 
L 209.863636 219.03 
L 209.863636 218.58848 
L 208.595455 218.58848 
z
" style="fill:#1f77b4;fill-opacity:0.5;stroke:#000000;stroke-linejoin:miter;stroke-width:0.126818;"/>
   </g>
   <g id="patch_123">
    <path clip-path="url(#pefffdad837)" d="M 209.863636 219.03 
L 211.131818 219.03 
L 211.131818 219.03 
L 209.863636 219.03 
z
" style="fill:#1f77b4;fill-opacity:0.5;stroke:#000000;stroke-linejoin:miter;stroke-width:0.126818;"/>
   </g>
   <g id="patch_124">
    <path clip-path="url(#pefffdad837)" d="M 211.131818 219.03 
L 212.4 219.03 
L 212.4 218.80924 
L 211.131818 218.80924 
z
" style="fill:#1f77b4;fill-opacity:0.5;stroke:#000000;stroke-linejoin:miter;stroke-width:0.126818;"/>
   </g>
   <g id="patch_125">
    <path clip-path="url(#pefffdad837)" d="M 212.4 219.03 
L 213.668182 219.03 
L 213.668182 218.58848 
L 212.4 218.58848 
z
" style="fill:#1f77b4;fill-opacity:0.5;stroke:#000000;stroke-linejoin:miter;stroke-width:0.126818;"/>
   </g>
   <g id="patch_126">
    <path clip-path="url(#pefffdad837)" d="M 213.668182 219.03 
L 214.936364 219.03 
L 214.936364 218.80924 
L 213.668182 218.80924 
z
" style="fill:#1f77b4;fill-opacity:0.5;stroke:#000000;stroke-linejoin:miter;stroke-width:0.126818;"/>
   </g>
   <g id="patch_127">
    <path clip-path="url(#pefffdad837)" d="M 214.936364 219.03 
L 216.204545 219.03 
L 216.204545 218.80924 
L 214.936364 218.80924 
z
" style="fill:#1f77b4;fill-opacity:0.5;stroke:#000000;stroke-linejoin:miter;stroke-width:0.126818;"/>
   </g>
   <g id="patch_128">
    <path clip-path="url(#pefffdad837)" d="M 216.204545 219.03 
L 217.472727 219.03 
L 217.472727 219.03 
L 216.204545 219.03 
z
" style="fill:#1f77b4;fill-opacity:0.5;stroke:#000000;stroke-linejoin:miter;stroke-width:0.126818;"/>
   </g>
   <g id="patch_129">
    <path clip-path="url(#pefffdad837)" d="M 217.472727 219.03 
L 218.740909 219.03 
L 218.740909 219.03 
L 217.472727 219.03 
z
" style="fill:#1f77b4;fill-opacity:0.5;stroke:#000000;stroke-linejoin:miter;stroke-width:0.126818;"/>
   </g>
   <g id="patch_130">
    <path clip-path="url(#pefffdad837)" d="M 218.740909 219.03 
L 220.009091 219.03 
L 220.009091 219.03 
L 218.740909 219.03 
z
" style="fill:#1f77b4;fill-opacity:0.5;stroke:#000000;stroke-linejoin:miter;stroke-width:0.126818;"/>
   </g>
   <g id="patch_131">
    <path clip-path="url(#pefffdad837)" d="M 220.009091 219.03 
L 221.277273 219.03 
L 221.277273 219.03 
L 220.009091 219.03 
z
" style="fill:#1f77b4;fill-opacity:0.5;stroke:#000000;stroke-linejoin:miter;stroke-width:0.126818;"/>
   </g>
   <g id="patch_132">
    <path clip-path="url(#pefffdad837)" d="M 221.277273 219.03 
L 222.545455 219.03 
L 222.545455 218.58848 
L 221.277273 218.58848 
z
" style="fill:#1f77b4;fill-opacity:0.5;stroke:#000000;stroke-linejoin:miter;stroke-width:0.126818;"/>
   </g>
   <g id="patch_133">
    <path clip-path="url(#pefffdad837)" d="M 222.545455 219.03 
L 223.813636 219.03 
L 223.813636 219.03 
L 222.545455 219.03 
z
" style="fill:#1f77b4;fill-opacity:0.5;stroke:#000000;stroke-linejoin:miter;stroke-width:0.126818;"/>
   </g>
   <g id="patch_134">
    <path clip-path="url(#pefffdad837)" d="M 223.813636 219.03 
L 225.081818 219.03 
L 225.081818 218.80924 
L 223.813636 218.80924 
z
" style="fill:#1f77b4;fill-opacity:0.5;stroke:#000000;stroke-linejoin:miter;stroke-width:0.126818;"/>
   </g>
   <g id="patch_135">
    <path clip-path="url(#pefffdad837)" d="M 225.081818 219.03 
L 226.35 219.03 
L 226.35 219.03 
L 225.081818 219.03 
z
" style="fill:#1f77b4;fill-opacity:0.5;stroke:#000000;stroke-linejoin:miter;stroke-width:0.126818;"/>
   </g>
   <g id="patch_136">
    <path clip-path="url(#pefffdad837)" d="M 226.35 219.03 
L 227.618182 219.03 
L 227.618182 219.03 
L 226.35 219.03 
z
" style="fill:#1f77b4;fill-opacity:0.5;stroke:#000000;stroke-linejoin:miter;stroke-width:0.126818;"/>
   </g>
   <g id="patch_137">
    <path clip-path="url(#pefffdad837)" d="M 227.618182 219.03 
L 228.886364 219.03 
L 228.886364 218.80924 
L 227.618182 218.80924 
z
" style="fill:#1f77b4;fill-opacity:0.5;stroke:#000000;stroke-linejoin:miter;stroke-width:0.126818;"/>
   </g>
   <g id="patch_138">
    <path clip-path="url(#pefffdad837)" d="M 228.886364 219.03 
L 230.154545 219.03 
L 230.154545 219.03 
L 228.886364 219.03 
z
" style="fill:#1f77b4;fill-opacity:0.5;stroke:#000000;stroke-linejoin:miter;stroke-width:0.126818;"/>
   </g>
   <g id="patch_139">
    <path clip-path="url(#pefffdad837)" d="M 230.154545 219.03 
L 231.422727 219.03 
L 231.422727 218.80924 
L 230.154545 218.80924 
z
" style="fill:#1f77b4;fill-opacity:0.5;stroke:#000000;stroke-linejoin:miter;stroke-width:0.126818;"/>
   </g>
   <g id="patch_140">
    <path clip-path="url(#pefffdad837)" d="M 231.422727 219.03 
L 232.690909 219.03 
L 232.690909 219.03 
L 231.422727 219.03 
z
" style="fill:#1f77b4;fill-opacity:0.5;stroke:#000000;stroke-linejoin:miter;stroke-width:0.126818;"/>
   </g>
   <g id="patch_141">
    <path clip-path="url(#pefffdad837)" d="M 232.690909 219.03 
L 233.959091 219.03 
L 233.959091 219.03 
L 232.690909 219.03 
z
" style="fill:#1f77b4;fill-opacity:0.5;stroke:#000000;stroke-linejoin:miter;stroke-width:0.126818;"/>
   </g>
   <g id="patch_142">
    <path clip-path="url(#pefffdad837)" d="M 233.959091 219.03 
L 235.227273 219.03 
L 235.227273 219.03 
L 233.959091 219.03 
z
" style="fill:#1f77b4;fill-opacity:0.5;stroke:#000000;stroke-linejoin:miter;stroke-width:0.126818;"/>
   </g>
   <g id="patch_143">
    <path clip-path="url(#pefffdad837)" d="M 235.227273 219.03 
L 236.495455 219.03 
L 236.495455 218.80924 
L 235.227273 218.80924 
z
" style="fill:#1f77b4;fill-opacity:0.5;stroke:#000000;stroke-linejoin:miter;stroke-width:0.126818;"/>
   </g>
   <g id="patch_144">
    <path clip-path="url(#pefffdad837)" d="M 236.495455 219.03 
L 237.763636 219.03 
L 237.763636 219.03 
L 236.495455 219.03 
z
" style="fill:#1f77b4;fill-opacity:0.5;stroke:#000000;stroke-linejoin:miter;stroke-width:0.126818;"/>
   </g>
   <g id="patch_145">
    <path clip-path="url(#pefffdad837)" d="M 237.763636 219.03 
L 239.031818 219.03 
L 239.031818 219.03 
L 237.763636 219.03 
z
" style="fill:#1f77b4;fill-opacity:0.5;stroke:#000000;stroke-linejoin:miter;stroke-width:0.126818;"/>
   </g>
   <g id="patch_146">
    <path clip-path="url(#pefffdad837)" d="M 239.031818 219.03 
L 240.3 219.03 
L 240.3 219.03 
L 239.031818 219.03 
z
" style="fill:#1f77b4;fill-opacity:0.5;stroke:#000000;stroke-linejoin:miter;stroke-width:0.126818;"/>
   </g>
   <g id="patch_147">
    <path clip-path="url(#pefffdad837)" d="M 240.3 219.03 
L 241.568182 219.03 
L 241.568182 219.03 
L 240.3 219.03 
z
" style="fill:#1f77b4;fill-opacity:0.5;stroke:#000000;stroke-linejoin:miter;stroke-width:0.126818;"/>
   </g>
   <g id="patch_148">
    <path clip-path="url(#pefffdad837)" d="M 241.568182 219.03 
L 242.836364 219.03 
L 242.836364 219.03 
L 241.568182 219.03 
z
" style="fill:#1f77b4;fill-opacity:0.5;stroke:#000000;stroke-linejoin:miter;stroke-width:0.126818;"/>
   </g>
   <g id="patch_149">
    <path clip-path="url(#pefffdad837)" d="M 242.836364 219.03 
L 244.104545 219.03 
L 244.104545 219.03 
L 242.836364 219.03 
z
" style="fill:#1f77b4;fill-opacity:0.5;stroke:#000000;stroke-linejoin:miter;stroke-width:0.126818;"/>
   </g>
   <g id="patch_150">
    <path clip-path="url(#pefffdad837)" d="M 244.104545 219.03 
L 245.372727 219.03 
L 245.372727 219.03 
L 244.104545 219.03 
z
" style="fill:#1f77b4;fill-opacity:0.5;stroke:#000000;stroke-linejoin:miter;stroke-width:0.126818;"/>
   </g>
   <g id="patch_151">
    <path clip-path="url(#pefffdad837)" d="M 245.372727 219.03 
L 246.640909 219.03 
L 246.640909 219.03 
L 245.372727 219.03 
z
" style="fill:#1f77b4;fill-opacity:0.5;stroke:#000000;stroke-linejoin:miter;stroke-width:0.126818;"/>
   </g>
   <g id="patch_152">
    <path clip-path="url(#pefffdad837)" d="M 246.640909 219.03 
L 247.909091 219.03 
L 247.909091 219.03 
L 246.640909 219.03 
z
" style="fill:#1f77b4;fill-opacity:0.5;stroke:#000000;stroke-linejoin:miter;stroke-width:0.126818;"/>
   </g>
   <g id="patch_153">
    <path clip-path="url(#pefffdad837)" d="M 247.909091 219.03 
L 249.177273 219.03 
L 249.177273 219.03 
L 247.909091 219.03 
z
" style="fill:#1f77b4;fill-opacity:0.5;stroke:#000000;stroke-linejoin:miter;stroke-width:0.126818;"/>
   </g>
   <g id="patch_154">
    <path clip-path="url(#pefffdad837)" d="M 249.177273 219.03 
L 250.445455 219.03 
L 250.445455 219.03 
L 249.177273 219.03 
z
" style="fill:#1f77b4;fill-opacity:0.5;stroke:#000000;stroke-linejoin:miter;stroke-width:0.126818;"/>
   </g>
   <g id="patch_155">
    <path clip-path="url(#pefffdad837)" d="M 250.445455 219.03 
L 251.713636 219.03 
L 251.713636 219.03 
L 250.445455 219.03 
z
" style="fill:#1f77b4;fill-opacity:0.5;stroke:#000000;stroke-linejoin:miter;stroke-width:0.126818;"/>
   </g>
   <g id="patch_156">
    <path clip-path="url(#pefffdad837)" d="M 251.713636 219.03 
L 252.981818 219.03 
L 252.981818 219.03 
L 251.713636 219.03 
z
" style="fill:#1f77b4;fill-opacity:0.5;stroke:#000000;stroke-linejoin:miter;stroke-width:0.126818;"/>
   </g>
   <g id="patch_157">
    <path clip-path="url(#pefffdad837)" d="M 252.981818 219.03 
L 254.25 219.03 
L 254.25 219.03 
L 252.981818 219.03 
z
" style="fill:#1f77b4;fill-opacity:0.5;stroke:#000000;stroke-linejoin:miter;stroke-width:0.126818;"/>
   </g>
   <g id="patch_158">
    <path clip-path="url(#pefffdad837)" d="M 254.25 219.03 
L 255.518182 219.03 
L 255.518182 219.03 
L 254.25 219.03 
z
" style="fill:#1f77b4;fill-opacity:0.5;stroke:#000000;stroke-linejoin:miter;stroke-width:0.126818;"/>
   </g>
   <g id="patch_159">
    <path clip-path="url(#pefffdad837)" d="M 255.518182 219.03 
L 256.786364 219.03 
L 256.786364 219.03 
L 255.518182 219.03 
z
" style="fill:#1f77b4;fill-opacity:0.5;stroke:#000000;stroke-linejoin:miter;stroke-width:0.126818;"/>
   </g>
   <g id="patch_160">
    <path clip-path="url(#pefffdad837)" d="M 256.786364 219.03 
L 258.054545 219.03 
L 258.054545 219.03 
L 256.786364 219.03 
z
" style="fill:#1f77b4;fill-opacity:0.5;stroke:#000000;stroke-linejoin:miter;stroke-width:0.126818;"/>
   </g>
   <g id="patch_161">
    <path clip-path="url(#pefffdad837)" d="M 258.054545 219.03 
L 259.322727 219.03 
L 259.322727 219.03 
L 258.054545 219.03 
z
" style="fill:#1f77b4;fill-opacity:0.5;stroke:#000000;stroke-linejoin:miter;stroke-width:0.126818;"/>
   </g>
   <g id="patch_162">
    <path clip-path="url(#pefffdad837)" d="M 259.322727 219.03 
L 260.590909 219.03 
L 260.590909 219.03 
L 259.322727 219.03 
z
" style="fill:#1f77b4;fill-opacity:0.5;stroke:#000000;stroke-linejoin:miter;stroke-width:0.126818;"/>
   </g>
   <g id="patch_163">
    <path clip-path="url(#pefffdad837)" d="M 260.590909 219.03 
L 261.859091 219.03 
L 261.859091 219.03 
L 260.590909 219.03 
z
" style="fill:#1f77b4;fill-opacity:0.5;stroke:#000000;stroke-linejoin:miter;stroke-width:0.126818;"/>
   </g>
   <g id="patch_164">
    <path clip-path="url(#pefffdad837)" d="M 261.859091 219.03 
L 263.127273 219.03 
L 263.127273 219.03 
L 261.859091 219.03 
z
" style="fill:#1f77b4;fill-opacity:0.5;stroke:#000000;stroke-linejoin:miter;stroke-width:0.126818;"/>
   </g>
   <g id="patch_165">
    <path clip-path="url(#pefffdad837)" d="M 263.127273 219.03 
L 264.395455 219.03 
L 264.395455 218.80924 
L 263.127273 218.80924 
z
" style="fill:#1f77b4;fill-opacity:0.5;stroke:#000000;stroke-linejoin:miter;stroke-width:0.126818;"/>
   </g>
   <g id="patch_166">
    <path clip-path="url(#pefffdad837)" d="M 264.395455 219.03 
L 265.663636 219.03 
L 265.663636 219.03 
L 264.395455 219.03 
z
" style="fill:#1f77b4;fill-opacity:0.5;stroke:#000000;stroke-linejoin:miter;stroke-width:0.126818;"/>
   </g>
   <g id="patch_167">
    <path clip-path="url(#pefffdad837)" d="M 265.663636 219.03 
L 266.931818 219.03 
L 266.931818 219.03 
L 265.663636 219.03 
z
" style="fill:#1f77b4;fill-opacity:0.5;stroke:#000000;stroke-linejoin:miter;stroke-width:0.126818;"/>
   </g>
   <g id="patch_168">
    <path clip-path="url(#pefffdad837)" d="M 266.931818 219.03 
L 268.2 219.03 
L 268.2 219.03 
L 266.931818 219.03 
z
" style="fill:#1f77b4;fill-opacity:0.5;stroke:#000000;stroke-linejoin:miter;stroke-width:0.126818;"/>
   </g>
   <g id="patch_169">
    <path clip-path="url(#pefffdad837)" d="M 268.2 219.03 
L 269.468182 219.03 
L 269.468182 219.03 
L 268.2 219.03 
z
" style="fill:#1f77b4;fill-opacity:0.5;stroke:#000000;stroke-linejoin:miter;stroke-width:0.126818;"/>
   </g>
   <g id="patch_170">
    <path clip-path="url(#pefffdad837)" d="M 269.468182 219.03 
L 270.736364 219.03 
L 270.736364 219.03 
L 269.468182 219.03 
z
" style="fill:#1f77b4;fill-opacity:0.5;stroke:#000000;stroke-linejoin:miter;stroke-width:0.126818;"/>
   </g>
   <g id="patch_171">
    <path clip-path="url(#pefffdad837)" d="M 270.736364 219.03 
L 272.004545 219.03 
L 272.004545 219.03 
L 270.736364 219.03 
z
" style="fill:#1f77b4;fill-opacity:0.5;stroke:#000000;stroke-linejoin:miter;stroke-width:0.126818;"/>
   </g>
   <g id="patch_172">
    <path clip-path="url(#pefffdad837)" d="M 272.004545 219.03 
L 273.272727 219.03 
L 273.272727 219.03 
L 272.004545 219.03 
z
" style="fill:#1f77b4;fill-opacity:0.5;stroke:#000000;stroke-linejoin:miter;stroke-width:0.126818;"/>
   </g>
   <g id="patch_173">
    <path clip-path="url(#pefffdad837)" d="M 273.272727 219.03 
L 274.540909 219.03 
L 274.540909 219.03 
L 273.272727 219.03 
z
" style="fill:#1f77b4;fill-opacity:0.5;stroke:#000000;stroke-linejoin:miter;stroke-width:0.126818;"/>
   </g>
   <g id="patch_174">
    <path clip-path="url(#pefffdad837)" d="M 274.540909 219.03 
L 275.809091 219.03 
L 275.809091 219.03 
L 274.540909 219.03 
z
" style="fill:#1f77b4;fill-opacity:0.5;stroke:#000000;stroke-linejoin:miter;stroke-width:0.126818;"/>
   </g>
   <g id="patch_175">
    <path clip-path="url(#pefffdad837)" d="M 275.809091 219.03 
L 277.077273 219.03 
L 277.077273 219.03 
L 275.809091 219.03 
z
" style="fill:#1f77b4;fill-opacity:0.5;stroke:#000000;stroke-linejoin:miter;stroke-width:0.126818;"/>
   </g>
   <g id="patch_176">
    <path clip-path="url(#pefffdad837)" d="M 277.077273 219.03 
L 278.345455 219.03 
L 278.345455 219.03 
L 277.077273 219.03 
z
" style="fill:#1f77b4;fill-opacity:0.5;stroke:#000000;stroke-linejoin:miter;stroke-width:0.126818;"/>
   </g>
   <g id="patch_177">
    <path clip-path="url(#pefffdad837)" d="M 278.345455 219.03 
L 279.613636 219.03 
L 279.613636 219.03 
L 278.345455 219.03 
z
" style="fill:#1f77b4;fill-opacity:0.5;stroke:#000000;stroke-linejoin:miter;stroke-width:0.126818;"/>
   </g>
   <g id="patch_178">
    <path clip-path="url(#pefffdad837)" d="M 279.613636 219.03 
L 280.881818 219.03 
L 280.881818 219.03 
L 279.613636 219.03 
z
" style="fill:#1f77b4;fill-opacity:0.5;stroke:#000000;stroke-linejoin:miter;stroke-width:0.126818;"/>
   </g>
   <g id="patch_179">
    <path clip-path="url(#pefffdad837)" d="M 280.881818 219.03 
L 282.15 219.03 
L 282.15 219.03 
L 280.881818 219.03 
z
" style="fill:#1f77b4;fill-opacity:0.5;stroke:#000000;stroke-linejoin:miter;stroke-width:0.126818;"/>
   </g>
   <g id="patch_180">
    <path clip-path="url(#pefffdad837)" d="M 282.15 219.03 
L 283.418182 219.03 
L 283.418182 219.03 
L 282.15 219.03 
z
" style="fill:#1f77b4;fill-opacity:0.5;stroke:#000000;stroke-linejoin:miter;stroke-width:0.126818;"/>
   </g>
   <g id="patch_181">
    <path clip-path="url(#pefffdad837)" d="M 283.418182 219.03 
L 284.686364 219.03 
L 284.686364 219.03 
L 283.418182 219.03 
z
" style="fill:#1f77b4;fill-opacity:0.5;stroke:#000000;stroke-linejoin:miter;stroke-width:0.126818;"/>
   </g>
   <g id="patch_182">
    <path clip-path="url(#pefffdad837)" d="M 284.686364 219.03 
L 285.954545 219.03 
L 285.954545 219.03 
L 284.686364 219.03 
z
" style="fill:#1f77b4;fill-opacity:0.5;stroke:#000000;stroke-linejoin:miter;stroke-width:0.126818;"/>
   </g>
   <g id="patch_183">
    <path clip-path="url(#pefffdad837)" d="M 285.954545 219.03 
L 287.222727 219.03 
L 287.222727 219.03 
L 285.954545 219.03 
z
" style="fill:#1f77b4;fill-opacity:0.5;stroke:#000000;stroke-linejoin:miter;stroke-width:0.126818;"/>
   </g>
   <g id="patch_184">
    <path clip-path="url(#pefffdad837)" d="M 287.222727 219.03 
L 288.490909 219.03 
L 288.490909 218.80924 
L 287.222727 218.80924 
z
" style="fill:#1f77b4;fill-opacity:0.5;stroke:#000000;stroke-linejoin:miter;stroke-width:0.126818;"/>
   </g>
   <g id="patch_185">
    <path clip-path="url(#pefffdad837)" d="M 288.490909 219.03 
L 289.759091 219.03 
L 289.759091 219.03 
L 288.490909 219.03 
z
" style="fill:#1f77b4;fill-opacity:0.5;stroke:#000000;stroke-linejoin:miter;stroke-width:0.126818;"/>
   </g>
   <g id="patch_186">
    <path clip-path="url(#pefffdad837)" d="M 289.759091 219.03 
L 291.027273 219.03 
L 291.027273 219.03 
L 289.759091 219.03 
z
" style="fill:#1f77b4;fill-opacity:0.5;stroke:#000000;stroke-linejoin:miter;stroke-width:0.126818;"/>
   </g>
   <g id="patch_187">
    <path clip-path="url(#pefffdad837)" d="M 291.027273 219.03 
L 292.295455 219.03 
L 292.295455 219.03 
L 291.027273 219.03 
z
" style="fill:#1f77b4;fill-opacity:0.5;stroke:#000000;stroke-linejoin:miter;stroke-width:0.126818;"/>
   </g>
   <g id="patch_188">
    <path clip-path="url(#pefffdad837)" d="M 292.295455 219.03 
L 293.563636 219.03 
L 293.563636 219.03 
L 292.295455 219.03 
z
" style="fill:#1f77b4;fill-opacity:0.5;stroke:#000000;stroke-linejoin:miter;stroke-width:0.126818;"/>
   </g>
   <g id="patch_189">
    <path clip-path="url(#pefffdad837)" d="M 293.563636 219.03 
L 294.831818 219.03 
L 294.831818 219.03 
L 293.563636 219.03 
z
" style="fill:#1f77b4;fill-opacity:0.5;stroke:#000000;stroke-linejoin:miter;stroke-width:0.126818;"/>
   </g>
   <g id="patch_190">
    <path clip-path="url(#pefffdad837)" d="M 294.831818 219.03 
L 296.1 219.03 
L 296.1 219.03 
L 294.831818 219.03 
z
" style="fill:#1f77b4;fill-opacity:0.5;stroke:#000000;stroke-linejoin:miter;stroke-width:0.126818;"/>
   </g>
   <g id="patch_191">
    <path clip-path="url(#pefffdad837)" d="M 296.1 219.03 
L 297.368182 219.03 
L 297.368182 219.03 
L 296.1 219.03 
z
" style="fill:#1f77b4;fill-opacity:0.5;stroke:#000000;stroke-linejoin:miter;stroke-width:0.126818;"/>
   </g>
   <g id="patch_192">
    <path clip-path="url(#pefffdad837)" d="M 297.368182 219.03 
L 298.636364 219.03 
L 298.636364 219.03 
L 297.368182 219.03 
z
" style="fill:#1f77b4;fill-opacity:0.5;stroke:#000000;stroke-linejoin:miter;stroke-width:0.126818;"/>
   </g>
   <g id="patch_193">
    <path clip-path="url(#pefffdad837)" d="M 298.636364 219.03 
L 299.904545 219.03 
L 299.904545 219.03 
L 298.636364 219.03 
z
" style="fill:#1f77b4;fill-opacity:0.5;stroke:#000000;stroke-linejoin:miter;stroke-width:0.126818;"/>
   </g>
   <g id="patch_194">
    <path clip-path="url(#pefffdad837)" d="M 299.904545 219.03 
L 301.172727 219.03 
L 301.172727 219.03 
L 299.904545 219.03 
z
" style="fill:#1f77b4;fill-opacity:0.5;stroke:#000000;stroke-linejoin:miter;stroke-width:0.126818;"/>
   </g>
   <g id="patch_195">
    <path clip-path="url(#pefffdad837)" d="M 301.172727 219.03 
L 302.440909 219.03 
L 302.440909 219.03 
L 301.172727 219.03 
z
" style="fill:#1f77b4;fill-opacity:0.5;stroke:#000000;stroke-linejoin:miter;stroke-width:0.126818;"/>
   </g>
   <g id="patch_196">
    <path clip-path="url(#pefffdad837)" d="M 302.440909 219.03 
L 303.709091 219.03 
L 303.709091 219.03 
L 302.440909 219.03 
z
" style="fill:#1f77b4;fill-opacity:0.5;stroke:#000000;stroke-linejoin:miter;stroke-width:0.126818;"/>
   </g>
   <g id="patch_197">
    <path clip-path="url(#pefffdad837)" d="M 303.709091 219.03 
L 304.977273 219.03 
L 304.977273 219.03 
L 303.709091 219.03 
z
" style="fill:#1f77b4;fill-opacity:0.5;stroke:#000000;stroke-linejoin:miter;stroke-width:0.126818;"/>
   </g>
   <g id="patch_198">
    <path clip-path="url(#pefffdad837)" d="M 304.977273 219.03 
L 306.245455 219.03 
L 306.245455 219.03 
L 304.977273 219.03 
z
" style="fill:#1f77b4;fill-opacity:0.5;stroke:#000000;stroke-linejoin:miter;stroke-width:0.126818;"/>
   </g>
   <g id="patch_199">
    <path clip-path="url(#pefffdad837)" d="M 306.245455 219.03 
L 307.513636 219.03 
L 307.513636 219.03 
L 306.245455 219.03 
z
" style="fill:#1f77b4;fill-opacity:0.5;stroke:#000000;stroke-linejoin:miter;stroke-width:0.126818;"/>
   </g>
   <g id="patch_200">
    <path clip-path="url(#pefffdad837)" d="M 307.513636 219.03 
L 308.781818 219.03 
L 308.781818 219.03 
L 307.513636 219.03 
z
" style="fill:#1f77b4;fill-opacity:0.5;stroke:#000000;stroke-linejoin:miter;stroke-width:0.126818;"/>
   </g>
   <g id="patch_201">
    <path clip-path="url(#pefffdad837)" d="M 308.781818 219.03 
L 310.05 219.03 
L 310.05 219.03 
L 308.781818 219.03 
z
" style="fill:#1f77b4;fill-opacity:0.5;stroke:#000000;stroke-linejoin:miter;stroke-width:0.126818;"/>
   </g>
   <g id="patch_202">
    <path clip-path="url(#pefffdad837)" d="M 310.05 219.03 
L 311.318182 219.03 
L 311.318182 218.80924 
L 310.05 218.80924 
z
" style="fill:#1f77b4;fill-opacity:0.5;stroke:#000000;stroke-linejoin:miter;stroke-width:0.126818;"/>
   </g>
   <g id="matplotlib.axis_1">
    <g id="xtick_1">
     <g id="line2d_1">
      <defs>
       <path d="M 0 0 
L 0 3.5 
" id="m2d00d21638" style="stroke:#000000;stroke-width:0.8;"/>
      </defs>
      <g>
       <use style="stroke:#000000;stroke-width:0.8;" x="50.08877" xlink:href="#m2d00d21638" y="219.03"/>
      </g>
     </g>
     <g id="text_1">
      <!-- 1.0 -->
      <g transform="translate(32.605145 236.97175)scale(0.144 -0.144)">
       <defs>
        <path d="M 10.59375 35.5 
L 73.1875 35.5 
L 73.1875 27.203125 
L 10.59375 27.203125 
z
" id="DejaVuSans-8722"/>
        <path d="M 12.40625 8.296875 
L 28.515625 8.296875 
L 28.515625 63.921875 
L 10.984375 60.40625 
L 10.984375 69.390625 
L 28.421875 72.90625 
L 38.28125 72.90625 
L 38.28125 8.296875 
L 54.390625 8.296875 
L 54.390625 0 
L 12.40625 0 
z
" id="DejaVuSans-49"/>
        <path d="M 10.6875 12.40625 
L 21 12.40625 
L 21 0 
L 10.6875 0 
z
" id="DejaVuSans-46"/>
        <path d="M 31.78125 66.40625 
Q 24.171875 66.40625 20.328125 58.90625 
Q 16.5 51.421875 16.5 36.375 
Q 16.5 21.390625 20.328125 13.890625 
Q 24.171875 6.390625 31.78125 6.390625 
Q 39.453125 6.390625 43.28125 13.890625 
Q 47.125 21.390625 47.125 36.375 
Q 47.125 51.421875 43.28125 58.90625 
Q 39.453125 66.40625 31.78125 66.40625 
z
M 31.78125 74.21875 
Q 44.046875 74.21875 50.515625 64.515625 
Q 56.984375 54.828125 56.984375 36.375 
Q 56.984375 17.96875 50.515625 8.265625 
Q 44.046875 -1.421875 31.78125 -1.421875 
Q 19.53125 -1.421875 13.0625 8.265625 
Q 6.59375 17.96875 6.59375 36.375 
Q 6.59375 54.828125 13.0625 64.515625 
Q 19.53125 74.21875 31.78125 74.21875 
z
" id="DejaVuSans-48"/>
       </defs>
       <use xlink:href="#DejaVuSans-8722"/>
       <use x="83.789062" xlink:href="#DejaVuSans-49"/>
       <use x="147.412109" xlink:href="#DejaVuSans-46"/>
       <use x="179.199219" xlink:href="#DejaVuSans-48"/>
      </g>
     </g>
    </g>
    <g id="xtick_2">
     <g id="line2d_2">
      <g>
       <use style="stroke:#000000;stroke-width:0.8;" x="116.82324" xlink:href="#m2d00d21638" y="219.03"/>
      </g>
     </g>
     <g id="text_2">
      <!-- 0.5 -->
      <g transform="translate(99.339615 236.97175)scale(0.144 -0.144)">
       <defs>
        <path d="M 10.796875 72.90625 
L 49.515625 72.90625 
L 49.515625 64.59375 
L 19.828125 64.59375 
L 19.828125 46.734375 
Q 21.96875 47.46875 24.109375 47.828125 
Q 26.265625 48.1875 28.421875 48.1875 
Q 40.625 48.1875 47.75 41.5 
Q 54.890625 34.8125 54.890625 23.390625 
Q 54.890625 11.625 47.5625 5.09375 
Q 40.234375 -1.421875 26.90625 -1.421875 
Q 22.3125 -1.421875 17.546875 -0.640625 
Q 12.796875 0.140625 7.71875 1.703125 
L 7.71875 11.625 
Q 12.109375 9.234375 16.796875 8.0625 
Q 21.484375 6.890625 26.703125 6.890625 
Q 35.15625 6.890625 40.078125 11.328125 
Q 45.015625 15.765625 45.015625 23.390625 
Q 45.015625 31 40.078125 35.4375 
Q 35.15625 39.890625 26.703125 39.890625 
Q 22.75 39.890625 18.8125 39.015625 
Q 14.890625 38.140625 10.796875 36.28125 
z
" id="DejaVuSans-53"/>
       </defs>
       <use xlink:href="#DejaVuSans-8722"/>
       <use x="83.789062" xlink:href="#DejaVuSans-48"/>
       <use x="147.412109" xlink:href="#DejaVuSans-46"/>
       <use x="179.199219" xlink:href="#DejaVuSans-53"/>
      </g>
     </g>
    </g>
    <g id="xtick_3">
     <g id="line2d_3">
      <g>
       <use style="stroke:#000000;stroke-width:0.8;" x="183.557709" xlink:href="#m2d00d21638" y="219.03"/>
      </g>
     </g>
     <g id="text_3">
      <!-- 0.0 -->
      <g transform="translate(172.107459 236.97175)scale(0.144 -0.144)">
       <use xlink:href="#DejaVuSans-48"/>
       <use x="63.623047" xlink:href="#DejaVuSans-46"/>
       <use x="95.410156" xlink:href="#DejaVuSans-48"/>
      </g>
     </g>
    </g>
    <g id="xtick_4">
     <g id="line2d_4">
      <g>
       <use style="stroke:#000000;stroke-width:0.8;" x="250.292179" xlink:href="#m2d00d21638" y="219.03"/>
      </g>
     </g>
     <g id="text_4">
      <!-- 0.5 -->
      <g transform="translate(238.841929 236.97175)scale(0.144 -0.144)">
       <use xlink:href="#DejaVuSans-48"/>
       <use x="63.623047" xlink:href="#DejaVuSans-46"/>
       <use x="95.410156" xlink:href="#DejaVuSans-53"/>
      </g>
     </g>
    </g>
    <g id="xtick_5">
     <g id="line2d_5">
      <g>
       <use style="stroke:#000000;stroke-width:0.8;" x="317.026648" xlink:href="#m2d00d21638" y="219.03"/>
      </g>
     </g>
     <g id="text_5">
      <!-- 1.0 -->
      <g transform="translate(305.576398 236.97175)scale(0.144 -0.144)">
       <use xlink:href="#DejaVuSans-49"/>
       <use x="63.623047" xlink:href="#DejaVuSans-46"/>
       <use x="95.410156" xlink:href="#DejaVuSans-48"/>
      </g>
     </g>
    </g>
   </g>
   <g id="matplotlib.axis_2">
    <g id="ytick_1">
     <g id="line2d_6">
      <defs>
       <path d="M 0 0 
L -3.5 0 
" id="m41f01bdd14" style="stroke:#000000;stroke-width:0.8;"/>
      </defs>
      <g>
       <use style="stroke:#000000;stroke-width:0.8;" x="45" xlink:href="#m41f01bdd14" y="219.03"/>
      </g>
     </g>
     <g id="text_6">
      <!-- 0 -->
      <g transform="translate(28.838 224.500875)scale(0.144 -0.144)">
       <use xlink:href="#DejaVuSans-48"/>
      </g>
     </g>
    </g>
    <g id="ytick_2">
     <g id="line2d_7">
      <g>
       <use style="stroke:#000000;stroke-width:0.8;" x="45" xlink:href="#m41f01bdd14" y="174.877953"/>
      </g>
     </g>
     <g id="text_7">
      <!-- 200 -->
      <g transform="translate(10.514 180.348828)scale(0.144 -0.144)">
       <defs>
        <path d="M 19.1875 8.296875 
L 53.609375 8.296875 
L 53.609375 0 
L 7.328125 0 
L 7.328125 8.296875 
Q 12.9375 14.109375 22.625 23.890625 
Q 32.328125 33.6875 34.8125 36.53125 
Q 39.546875 41.84375 41.421875 45.53125 
Q 43.3125 49.21875 43.3125 52.78125 
Q 43.3125 58.59375 39.234375 62.25 
Q 35.15625 65.921875 28.609375 65.921875 
Q 23.96875 65.921875 18.8125 64.3125 
Q 13.671875 62.703125 7.8125 59.421875 
L 7.8125 69.390625 
Q 13.765625 71.78125 18.9375 73 
Q 24.125 74.21875 28.421875 74.21875 
Q 39.75 74.21875 46.484375 68.546875 
Q 53.21875 62.890625 53.21875 53.421875 
Q 53.21875 48.921875 51.53125 44.890625 
Q 49.859375 40.875 45.40625 35.40625 
Q 44.1875 33.984375 37.640625 27.21875 
Q 31.109375 20.453125 19.1875 8.296875 
z
" id="DejaVuSans-50"/>
       </defs>
       <use xlink:href="#DejaVuSans-50"/>
       <use x="63.623047" xlink:href="#DejaVuSans-48"/>
       <use x="127.246094" xlink:href="#DejaVuSans-48"/>
      </g>
     </g>
    </g>
    <g id="ytick_3">
     <g id="line2d_8">
      <g>
       <use style="stroke:#000000;stroke-width:0.8;" x="45" xlink:href="#m41f01bdd14" y="130.725906"/>
      </g>
     </g>
     <g id="text_8">
      <!-- 400 -->
      <g transform="translate(10.514 136.196781)scale(0.144 -0.144)">
       <defs>
        <path d="M 37.796875 64.3125 
L 12.890625 25.390625 
L 37.796875 25.390625 
z
M 35.203125 72.90625 
L 47.609375 72.90625 
L 47.609375 25.390625 
L 58.015625 25.390625 
L 58.015625 17.1875 
L 47.609375 17.1875 
L 47.609375 0 
L 37.796875 0 
L 37.796875 17.1875 
L 4.890625 17.1875 
L 4.890625 26.703125 
z
" id="DejaVuSans-52"/>
       </defs>
       <use xlink:href="#DejaVuSans-52"/>
       <use x="63.623047" xlink:href="#DejaVuSans-48"/>
       <use x="127.246094" xlink:href="#DejaVuSans-48"/>
      </g>
     </g>
    </g>
    <g id="ytick_4">
     <g id="line2d_9">
      <g>
       <use style="stroke:#000000;stroke-width:0.8;" x="45" xlink:href="#m41f01bdd14" y="86.57386"/>
      </g>
     </g>
     <g id="text_9">
      <!-- 600 -->
      <g transform="translate(10.514 92.044735)scale(0.144 -0.144)">
       <defs>
        <path d="M 33.015625 40.375 
Q 26.375 40.375 22.484375 35.828125 
Q 18.609375 31.296875 18.609375 23.390625 
Q 18.609375 15.53125 22.484375 10.953125 
Q 26.375 6.390625 33.015625 6.390625 
Q 39.65625 6.390625 43.53125 10.953125 
Q 47.40625 15.53125 47.40625 23.390625 
Q 47.40625 31.296875 43.53125 35.828125 
Q 39.65625 40.375 33.015625 40.375 
z
M 52.59375 71.296875 
L 52.59375 62.3125 
Q 48.875 64.0625 45.09375 64.984375 
Q 41.3125 65.921875 37.59375 65.921875 
Q 27.828125 65.921875 22.671875 59.328125 
Q 17.53125 52.734375 16.796875 39.40625 
Q 19.671875 43.65625 24.015625 45.921875 
Q 28.375 48.1875 33.59375 48.1875 
Q 44.578125 48.1875 50.953125 41.515625 
Q 57.328125 34.859375 57.328125 23.390625 
Q 57.328125 12.15625 50.6875 5.359375 
Q 44.046875 -1.421875 33.015625 -1.421875 
Q 20.359375 -1.421875 13.671875 8.265625 
Q 6.984375 17.96875 6.984375 36.375 
Q 6.984375 53.65625 15.1875 63.9375 
Q 23.390625 74.21875 37.203125 74.21875 
Q 40.921875 74.21875 44.703125 73.484375 
Q 48.484375 72.75 52.59375 71.296875 
z
" id="DejaVuSans-54"/>
       </defs>
       <use xlink:href="#DejaVuSans-54"/>
       <use x="63.623047" xlink:href="#DejaVuSans-48"/>
       <use x="127.246094" xlink:href="#DejaVuSans-48"/>
      </g>
     </g>
    </g>
    <g id="text_10">
     <!-- Count -->
     <g transform="translate(3.51925 161.13675)rotate(-90)scale(0.144 -0.144)">
      <defs>
       <path d="M 64.40625 67.28125 
L 64.40625 56.890625 
Q 59.421875 61.53125 53.78125 63.8125 
Q 48.140625 66.109375 41.796875 66.109375 
Q 29.296875 66.109375 22.65625 58.46875 
Q 16.015625 50.828125 16.015625 36.375 
Q 16.015625 21.96875 22.65625 14.328125 
Q 29.296875 6.6875 41.796875 6.6875 
Q 48.140625 6.6875 53.78125 8.984375 
Q 59.421875 11.28125 64.40625 15.921875 
L 64.40625 5.609375 
Q 59.234375 2.09375 53.4375 0.328125 
Q 47.65625 -1.421875 41.21875 -1.421875 
Q 24.65625 -1.421875 15.125 8.703125 
Q 5.609375 18.84375 5.609375 36.375 
Q 5.609375 53.953125 15.125 64.078125 
Q 24.65625 74.21875 41.21875 74.21875 
Q 47.75 74.21875 53.53125 72.484375 
Q 59.328125 70.75 64.40625 67.28125 
z
" id="DejaVuSans-67"/>
       <path d="M 30.609375 48.390625 
Q 23.390625 48.390625 19.1875 42.75 
Q 14.984375 37.109375 14.984375 27.296875 
Q 14.984375 17.484375 19.15625 11.84375 
Q 23.34375 6.203125 30.609375 6.203125 
Q 37.796875 6.203125 41.984375 11.859375 
Q 46.1875 17.53125 46.1875 27.296875 
Q 46.1875 37.015625 41.984375 42.703125 
Q 37.796875 48.390625 30.609375 48.390625 
z
M 30.609375 56 
Q 42.328125 56 49.015625 48.375 
Q 55.71875 40.765625 55.71875 27.296875 
Q 55.71875 13.875 49.015625 6.21875 
Q 42.328125 -1.421875 30.609375 -1.421875 
Q 18.84375 -1.421875 12.171875 6.21875 
Q 5.515625 13.875 5.515625 27.296875 
Q 5.515625 40.765625 12.171875 48.375 
Q 18.84375 56 30.609375 56 
z
" id="DejaVuSans-111"/>
       <path d="M 8.5 21.578125 
L 8.5 54.6875 
L 17.484375 54.6875 
L 17.484375 21.921875 
Q 17.484375 14.15625 20.5 10.265625 
Q 23.53125 6.390625 29.59375 6.390625 
Q 36.859375 6.390625 41.078125 11.03125 
Q 45.3125 15.671875 45.3125 23.6875 
L 45.3125 54.6875 
L 54.296875 54.6875 
L 54.296875 0 
L 45.3125 0 
L 45.3125 8.40625 
Q 42.046875 3.421875 37.71875 1 
Q 33.40625 -1.421875 27.6875 -1.421875 
Q 18.265625 -1.421875 13.375 4.4375 
Q 8.5 10.296875 8.5 21.578125 
z
M 31.109375 56 
z
" id="DejaVuSans-117"/>
       <path d="M 54.890625 33.015625 
L 54.890625 0 
L 45.90625 0 
L 45.90625 32.71875 
Q 45.90625 40.484375 42.875 44.328125 
Q 39.84375 48.1875 33.796875 48.1875 
Q 26.515625 48.1875 22.3125 43.546875 
Q 18.109375 38.921875 18.109375 30.90625 
L 18.109375 0 
L 9.078125 0 
L 9.078125 54.6875 
L 18.109375 54.6875 
L 18.109375 46.1875 
Q 21.34375 51.125 25.703125 53.5625 
Q 30.078125 56 35.796875 56 
Q 45.21875 56 50.046875 50.171875 
Q 54.890625 44.34375 54.890625 33.015625 
z
" id="DejaVuSans-110"/>
       <path d="M 18.3125 70.21875 
L 18.3125 54.6875 
L 36.8125 54.6875 
L 36.8125 47.703125 
L 18.3125 47.703125 
L 18.3125 18.015625 
Q 18.3125 11.328125 20.140625 9.421875 
Q 21.96875 7.515625 27.59375 7.515625 
L 36.8125 7.515625 
L 36.8125 0 
L 27.59375 0 
Q 17.1875 0 13.234375 3.875 
Q 9.28125 7.765625 9.28125 18.015625 
L 9.28125 47.703125 
L 2.6875 47.703125 
L 2.6875 54.6875 
L 9.28125 54.6875 
L 9.28125 70.21875 
z
" id="DejaVuSans-116"/>
      </defs>
      <use xlink:href="#DejaVuSans-67"/>
      <use x="69.824219" xlink:href="#DejaVuSans-111"/>
      <use x="131.005859" xlink:href="#DejaVuSans-117"/>
      <use x="194.384766" xlink:href="#DejaVuSans-110"/>
      <use x="257.763672" xlink:href="#DejaVuSans-116"/>
     </g>
    </g>
   </g>
   <g id="line2d_10">
    <path clip-path="url(#pefffdad837)" d="M 57.681818 218.983823 
L 71.701919 218.941567 
L 80.623801 218.982511 
L 94.643901 218.804059 
L 111.213111 218.600665 
L 122.684102 218.489523 
L 132.880539 218.121094 
L 149.449749 217.481662 
L 160.92074 216.760297 
L 163.469849 216.578031 
L 166.018958 216.157362 
L 168.568068 215.41805 
L 169.842622 214.903675 
L 171.117177 214.235458 
L 172.391731 213.30896 
L 173.666286 211.958084 
L 174.940841 209.974238 
L 176.215395 207.169353 
L 177.48995 203.483615 
L 181.313614 190.580721 
L 182.588168 188.049021 
L 183.862723 187.576849 
L 185.137277 189.330932 
L 186.411832 192.950473 
L 190.235496 207.197332 
L 191.51005 210.848872 
L 192.784605 213.526269 
L 194.059159 215.342881 
L 195.333714 216.506578 
L 196.608269 217.227491 
L 197.882823 217.671656 
L 200.431932 218.136526 
L 204.255596 218.442982 
L 211.902924 218.765116 
L 220.824806 218.915045 
L 310.043627 219.004722 
L 311.318182 219.003544 
L 311.318182 219.003544 
" style="fill:none;stroke:#1f77b4;stroke-linecap:square;stroke-width:1.5;"/>
   </g>
   <g id="patch_203">
    <path d="M 45 219.03 
L 45 60.48 
" style="fill:none;stroke:#000000;stroke-linecap:square;stroke-linejoin:miter;stroke-width:0.8;"/>
   </g>
   <g id="patch_204">
    <path d="M 324 219.03 
L 324 60.48 
" style="fill:none;stroke:#000000;stroke-linecap:square;stroke-linejoin:miter;stroke-width:0.8;"/>
   </g>
   <g id="patch_205">
    <path d="M 45 219.03 
L 324 219.03 
" style="fill:none;stroke:#000000;stroke-linecap:square;stroke-linejoin:miter;stroke-width:0.8;"/>
   </g>
   <g id="patch_206">
    <path d="M 45 60.48 
L 324 60.48 
" style="fill:none;stroke:#000000;stroke-linecap:square;stroke-linejoin:miter;stroke-width:0.8;"/>
   </g>
   <g id="text_11">
    <!-- Explanation -->
    <g transform="translate(141.939 54.48)scale(0.144 -0.144)">
     <defs>
      <path d="M 9.8125 72.90625 
L 55.90625 72.90625 
L 55.90625 64.59375 
L 19.671875 64.59375 
L 19.671875 43.015625 
L 54.390625 43.015625 
L 54.390625 34.71875 
L 19.671875 34.71875 
L 19.671875 8.296875 
L 56.78125 8.296875 
L 56.78125 0 
L 9.8125 0 
z
" id="DejaVuSans-69"/>
      <path d="M 54.890625 54.6875 
L 35.109375 28.078125 
L 55.90625 0 
L 45.3125 0 
L 29.390625 21.484375 
L 13.484375 0 
L 2.875 0 
L 24.125 28.609375 
L 4.6875 54.6875 
L 15.28125 54.6875 
L 29.78125 35.203125 
L 44.28125 54.6875 
z
" id="DejaVuSans-120"/>
      <path d="M 18.109375 8.203125 
L 18.109375 -20.796875 
L 9.078125 -20.796875 
L 9.078125 54.6875 
L 18.109375 54.6875 
L 18.109375 46.390625 
Q 20.953125 51.265625 25.265625 53.625 
Q 29.59375 56 35.59375 56 
Q 45.5625 56 51.78125 48.09375 
Q 58.015625 40.1875 58.015625 27.296875 
Q 58.015625 14.40625 51.78125 6.484375 
Q 45.5625 -1.421875 35.59375 -1.421875 
Q 29.59375 -1.421875 25.265625 0.953125 
Q 20.953125 3.328125 18.109375 8.203125 
z
M 48.6875 27.296875 
Q 48.6875 37.203125 44.609375 42.84375 
Q 40.53125 48.484375 33.40625 48.484375 
Q 26.265625 48.484375 22.1875 42.84375 
Q 18.109375 37.203125 18.109375 27.296875 
Q 18.109375 17.390625 22.1875 11.75 
Q 26.265625 6.109375 33.40625 6.109375 
Q 40.53125 6.109375 44.609375 11.75 
Q 48.6875 17.390625 48.6875 27.296875 
z
" id="DejaVuSans-112"/>
      <path d="M 9.421875 75.984375 
L 18.40625 75.984375 
L 18.40625 0 
L 9.421875 0 
z
" id="DejaVuSans-108"/>
      <path d="M 34.28125 27.484375 
Q 23.390625 27.484375 19.1875 25 
Q 14.984375 22.515625 14.984375 16.5 
Q 14.984375 11.71875 18.140625 8.90625 
Q 21.296875 6.109375 26.703125 6.109375 
Q 34.1875 6.109375 38.703125 11.40625 
Q 43.21875 16.703125 43.21875 25.484375 
L 43.21875 27.484375 
z
M 52.203125 31.203125 
L 52.203125 0 
L 43.21875 0 
L 43.21875 8.296875 
Q 40.140625 3.328125 35.546875 0.953125 
Q 30.953125 -1.421875 24.3125 -1.421875 
Q 15.921875 -1.421875 10.953125 3.296875 
Q 6 8.015625 6 15.921875 
Q 6 25.140625 12.171875 29.828125 
Q 18.359375 34.515625 30.609375 34.515625 
L 43.21875 34.515625 
L 43.21875 35.40625 
Q 43.21875 41.609375 39.140625 45 
Q 35.0625 48.390625 27.6875 48.390625 
Q 23 48.390625 18.546875 47.265625 
Q 14.109375 46.140625 10.015625 43.890625 
L 10.015625 52.203125 
Q 14.9375 54.109375 19.578125 55.046875 
Q 24.21875 56 28.609375 56 
Q 40.484375 56 46.34375 49.84375 
Q 52.203125 43.703125 52.203125 31.203125 
z
" id="DejaVuSans-97"/>
      <path d="M 9.421875 54.6875 
L 18.40625 54.6875 
L 18.40625 0 
L 9.421875 0 
z
M 9.421875 75.984375 
L 18.40625 75.984375 
L 18.40625 64.59375 
L 9.421875 64.59375 
z
" id="DejaVuSans-105"/>
     </defs>
     <use xlink:href="#DejaVuSans-69"/>
     <use x="63.183594" xlink:href="#DejaVuSans-120"/>
     <use x="122.363281" xlink:href="#DejaVuSans-112"/>
     <use x="185.839844" xlink:href="#DejaVuSans-108"/>
     <use x="213.623047" xlink:href="#DejaVuSans-97"/>
     <use x="274.902344" xlink:href="#DejaVuSans-110"/>
     <use x="338.28125" xlink:href="#DejaVuSans-97"/>
     <use x="399.560547" xlink:href="#DejaVuSans-116"/>
     <use x="438.769531" xlink:href="#DejaVuSans-105"/>
     <use x="466.552734" xlink:href="#DejaVuSans-111"/>
     <use x="527.734375" xlink:href="#DejaVuSans-110"/>
    </g>
   </g>
  </g>
  <g id="axes_2">
   <g id="patch_207">
    <path d="M 45 441 
L 324 441 
L 324 282.45 
L 45 282.45 
z
" style="fill:#ffffff;"/>
   </g>
   <g id="patch_208">
    <path clip-path="url(#pc811c53473)" d="M 57.681818 441 
L 62.754545 441 
L 62.754545 440.643026 
L 57.681818 440.643026 
z
" style="fill:#1f77b4;fill-opacity:0.5;stroke:#000000;stroke-linejoin:miter;stroke-width:0.507273;"/>
   </g>
   <g id="patch_209">
    <path clip-path="url(#pc811c53473)" d="M 62.754545 441 
L 67.827273 441 
L 67.827273 440.643026 
L 62.754545 440.643026 
z
" style="fill:#1f77b4;fill-opacity:0.5;stroke:#000000;stroke-linejoin:miter;stroke-width:0.507273;"/>
   </g>
   <g id="patch_210">
    <path clip-path="url(#pc811c53473)" d="M 67.827273 441 
L 72.9 441 
L 72.9 440.821513 
L 67.827273 440.821513 
z
" style="fill:#1f77b4;fill-opacity:0.5;stroke:#000000;stroke-linejoin:miter;stroke-width:0.507273;"/>
   </g>
   <g id="patch_211">
    <path clip-path="url(#pc811c53473)" d="M 72.9 441 
L 77.972727 441 
L 77.972727 440.464539 
L 72.9 440.464539 
z
" style="fill:#1f77b4;fill-opacity:0.5;stroke:#000000;stroke-linejoin:miter;stroke-width:0.507273;"/>
   </g>
   <g id="patch_212">
    <path clip-path="url(#pc811c53473)" d="M 77.972727 441 
L 83.045455 441 
L 83.045455 440.107565 
L 77.972727 440.107565 
z
" style="fill:#1f77b4;fill-opacity:0.5;stroke:#000000;stroke-linejoin:miter;stroke-width:0.507273;"/>
   </g>
   <g id="patch_213">
    <path clip-path="url(#pc811c53473)" d="M 83.045455 441 
L 88.118182 441 
L 88.118182 439.572104 
L 83.045455 439.572104 
z
" style="fill:#1f77b4;fill-opacity:0.5;stroke:#000000;stroke-linejoin:miter;stroke-width:0.507273;"/>
   </g>
   <g id="patch_214">
    <path clip-path="url(#pc811c53473)" d="M 88.118182 441 
L 93.190909 441 
L 93.190909 438.501182 
L 88.118182 438.501182 
z
" style="fill:#1f77b4;fill-opacity:0.5;stroke:#000000;stroke-linejoin:miter;stroke-width:0.507273;"/>
   </g>
   <g id="patch_215">
    <path clip-path="url(#pc811c53473)" d="M 93.190909 441 
L 98.263636 441 
L 98.263636 439.393617 
L 93.190909 439.393617 
z
" style="fill:#1f77b4;fill-opacity:0.5;stroke:#000000;stroke-linejoin:miter;stroke-width:0.507273;"/>
   </g>
   <g id="patch_216">
    <path clip-path="url(#pc811c53473)" d="M 98.263636 441 
L 103.336364 441 
L 103.336364 438.858156 
L 98.263636 438.858156 
z
" style="fill:#1f77b4;fill-opacity:0.5;stroke:#000000;stroke-linejoin:miter;stroke-width:0.507273;"/>
   </g>
   <g id="patch_217">
    <path clip-path="url(#pc811c53473)" d="M 103.336364 441 
L 108.409091 441 
L 108.409091 437.965721 
L 103.336364 437.965721 
z
" style="fill:#1f77b4;fill-opacity:0.5;stroke:#000000;stroke-linejoin:miter;stroke-width:0.507273;"/>
   </g>
   <g id="patch_218">
    <path clip-path="url(#pc811c53473)" d="M 108.409091 441 
L 113.481818 441 
L 113.481818 439.036643 
L 108.409091 439.036643 
z
" style="fill:#1f77b4;fill-opacity:0.5;stroke:#000000;stroke-linejoin:miter;stroke-width:0.507273;"/>
   </g>
   <g id="patch_219">
    <path clip-path="url(#pc811c53473)" d="M 113.481818 441 
L 118.554545 441 
L 118.554545 436.180851 
L 113.481818 436.180851 
z
" style="fill:#1f77b4;fill-opacity:0.5;stroke:#000000;stroke-linejoin:miter;stroke-width:0.507273;"/>
   </g>
   <g id="patch_220">
    <path clip-path="url(#pc811c53473)" d="M 118.554545 441 
L 123.627273 441 
L 123.627273 438.144208 
L 118.554545 438.144208 
z
" style="fill:#1f77b4;fill-opacity:0.5;stroke:#000000;stroke-linejoin:miter;stroke-width:0.507273;"/>
   </g>
   <g id="patch_221">
    <path clip-path="url(#pc811c53473)" d="M 123.627273 441 
L 128.7 441 
L 128.7 436.894799 
L 123.627273 436.894799 
z
" style="fill:#1f77b4;fill-opacity:0.5;stroke:#000000;stroke-linejoin:miter;stroke-width:0.507273;"/>
   </g>
   <g id="patch_222">
    <path clip-path="url(#pc811c53473)" d="M 128.7 441 
L 133.772727 441 
L 133.772727 437.43026 
L 128.7 437.43026 
z
" style="fill:#1f77b4;fill-opacity:0.5;stroke:#000000;stroke-linejoin:miter;stroke-width:0.507273;"/>
   </g>
   <g id="patch_223">
    <path clip-path="url(#pc811c53473)" d="M 133.772727 441 
L 138.845455 441 
L 138.845455 436.894799 
L 133.772727 436.894799 
z
" style="fill:#1f77b4;fill-opacity:0.5;stroke:#000000;stroke-linejoin:miter;stroke-width:0.507273;"/>
   </g>
   <g id="patch_224">
    <path clip-path="url(#pc811c53473)" d="M 138.845455 441 
L 143.918182 441 
L 143.918182 437.608747 
L 138.845455 437.608747 
z
" style="fill:#1f77b4;fill-opacity:0.5;stroke:#000000;stroke-linejoin:miter;stroke-width:0.507273;"/>
   </g>
   <g id="patch_225">
    <path clip-path="url(#pc811c53473)" d="M 143.918182 441 
L 148.990909 441 
L 148.990909 435.288416 
L 143.918182 435.288416 
z
" style="fill:#1f77b4;fill-opacity:0.5;stroke:#000000;stroke-linejoin:miter;stroke-width:0.507273;"/>
   </g>
   <g id="patch_226">
    <path clip-path="url(#pc811c53473)" d="M 148.990909 441 
L 154.063636 441 
L 154.063636 436.894799 
L 148.990909 436.894799 
z
" style="fill:#1f77b4;fill-opacity:0.5;stroke:#000000;stroke-linejoin:miter;stroke-width:0.507273;"/>
   </g>
   <g id="patch_227">
    <path clip-path="url(#pc811c53473)" d="M 154.063636 441 
L 159.136364 441 
L 159.136364 433.146572 
L 154.063636 433.146572 
z
" style="fill:#1f77b4;fill-opacity:0.5;stroke:#000000;stroke-linejoin:miter;stroke-width:0.507273;"/>
   </g>
   <g id="patch_228">
    <path clip-path="url(#pc811c53473)" d="M 159.136364 441 
L 164.209091 441 
L 164.209091 432.968085 
L 159.136364 432.968085 
z
" style="fill:#1f77b4;fill-opacity:0.5;stroke:#000000;stroke-linejoin:miter;stroke-width:0.507273;"/>
   </g>
   <g id="patch_229">
    <path clip-path="url(#pc811c53473)" d="M 164.209091 441 
L 169.281818 441 
L 169.281818 434.217494 
L 164.209091 434.217494 
z
" style="fill:#1f77b4;fill-opacity:0.5;stroke:#000000;stroke-linejoin:miter;stroke-width:0.507273;"/>
   </g>
   <g id="patch_230">
    <path clip-path="url(#pc811c53473)" d="M 169.281818 441 
L 174.354545 441 
L 174.354545 432.968085 
L 169.281818 432.968085 
z
" style="fill:#1f77b4;fill-opacity:0.5;stroke:#000000;stroke-linejoin:miter;stroke-width:0.507273;"/>
   </g>
   <g id="patch_231">
    <path clip-path="url(#pc811c53473)" d="M 174.354545 441 
L 179.427273 441 
L 179.427273 431.897163 
L 174.354545 431.897163 
z
" style="fill:#1f77b4;fill-opacity:0.5;stroke:#000000;stroke-linejoin:miter;stroke-width:0.507273;"/>
   </g>
   <g id="patch_232">
    <path clip-path="url(#pc811c53473)" d="M 179.427273 441 
L 184.5 441 
L 184.5 424.93617 
L 179.427273 424.93617 
z
" style="fill:#1f77b4;fill-opacity:0.5;stroke:#000000;stroke-linejoin:miter;stroke-width:0.507273;"/>
   </g>
   <g id="patch_233">
    <path clip-path="url(#pc811c53473)" d="M 184.5 441 
L 189.572727 441 
L 189.572727 420.295508 
L 184.5 420.295508 
z
" style="fill:#1f77b4;fill-opacity:0.5;stroke:#000000;stroke-linejoin:miter;stroke-width:0.507273;"/>
   </g>
   <g id="patch_234">
    <path clip-path="url(#pc811c53473)" d="M 189.572727 441 
L 194.645455 441 
L 194.645455 290 
L 189.572727 290 
z
" style="fill:#1f77b4;fill-opacity:0.5;stroke:#000000;stroke-linejoin:miter;stroke-width:0.507273;"/>
   </g>
   <g id="patch_235">
    <path clip-path="url(#pc811c53473)" d="M 194.645455 441 
L 199.718182 441 
L 199.718182 415.119385 
L 194.645455 415.119385 
z
" style="fill:#1f77b4;fill-opacity:0.5;stroke:#000000;stroke-linejoin:miter;stroke-width:0.507273;"/>
   </g>
   <g id="patch_236">
    <path clip-path="url(#pc811c53473)" d="M 199.718182 441 
L 204.790909 441 
L 204.790909 432.968085 
L 199.718182 432.968085 
z
" style="fill:#1f77b4;fill-opacity:0.5;stroke:#000000;stroke-linejoin:miter;stroke-width:0.507273;"/>
   </g>
   <g id="patch_237">
    <path clip-path="url(#pc811c53473)" d="M 204.790909 441 
L 209.863636 441 
L 209.863636 435.823877 
L 204.790909 435.823877 
z
" style="fill:#1f77b4;fill-opacity:0.5;stroke:#000000;stroke-linejoin:miter;stroke-width:0.507273;"/>
   </g>
   <g id="patch_238">
    <path clip-path="url(#pc811c53473)" d="M 209.863636 441 
L 214.936364 441 
L 214.936364 436.894799 
L 209.863636 436.894799 
z
" style="fill:#1f77b4;fill-opacity:0.5;stroke:#000000;stroke-linejoin:miter;stroke-width:0.507273;"/>
   </g>
   <g id="patch_239">
    <path clip-path="url(#pc811c53473)" d="M 214.936364 441 
L 220.009091 441 
L 220.009091 439.036643 
L 214.936364 439.036643 
z
" style="fill:#1f77b4;fill-opacity:0.5;stroke:#000000;stroke-linejoin:miter;stroke-width:0.507273;"/>
   </g>
   <g id="patch_240">
    <path clip-path="url(#pc811c53473)" d="M 220.009091 441 
L 225.081818 441 
L 225.081818 440.107565 
L 220.009091 440.107565 
z
" style="fill:#1f77b4;fill-opacity:0.5;stroke:#000000;stroke-linejoin:miter;stroke-width:0.507273;"/>
   </g>
   <g id="patch_241">
    <path clip-path="url(#pc811c53473)" d="M 225.081818 441 
L 230.154545 441 
L 230.154545 440.643026 
L 225.081818 440.643026 
z
" style="fill:#1f77b4;fill-opacity:0.5;stroke:#000000;stroke-linejoin:miter;stroke-width:0.507273;"/>
   </g>
   <g id="patch_242">
    <path clip-path="url(#pc811c53473)" d="M 230.154545 441 
L 235.227273 441 
L 235.227273 440.286052 
L 230.154545 440.286052 
z
" style="fill:#1f77b4;fill-opacity:0.5;stroke:#000000;stroke-linejoin:miter;stroke-width:0.507273;"/>
   </g>
   <g id="patch_243">
    <path clip-path="url(#pc811c53473)" d="M 235.227273 441 
L 240.3 441 
L 240.3 439.929078 
L 235.227273 439.929078 
z
" style="fill:#1f77b4;fill-opacity:0.5;stroke:#000000;stroke-linejoin:miter;stroke-width:0.507273;"/>
   </g>
   <g id="patch_244">
    <path clip-path="url(#pc811c53473)" d="M 240.3 441 
L 245.372727 441 
L 245.372727 440.821513 
L 240.3 440.821513 
z
" style="fill:#1f77b4;fill-opacity:0.5;stroke:#000000;stroke-linejoin:miter;stroke-width:0.507273;"/>
   </g>
   <g id="patch_245">
    <path clip-path="url(#pc811c53473)" d="M 245.372727 441 
L 250.445455 441 
L 250.445455 440.643026 
L 245.372727 440.643026 
z
" style="fill:#1f77b4;fill-opacity:0.5;stroke:#000000;stroke-linejoin:miter;stroke-width:0.507273;"/>
   </g>
   <g id="patch_246">
    <path clip-path="url(#pc811c53473)" d="M 250.445455 441 
L 255.518182 441 
L 255.518182 441 
L 250.445455 441 
z
" style="fill:#1f77b4;fill-opacity:0.5;stroke:#000000;stroke-linejoin:miter;stroke-width:0.507273;"/>
   </g>
   <g id="patch_247">
    <path clip-path="url(#pc811c53473)" d="M 255.518182 441 
L 260.590909 441 
L 260.590909 441 
L 255.518182 441 
z
" style="fill:#1f77b4;fill-opacity:0.5;stroke:#000000;stroke-linejoin:miter;stroke-width:0.507273;"/>
   </g>
   <g id="patch_248">
    <path clip-path="url(#pc811c53473)" d="M 260.590909 441 
L 265.663636 441 
L 265.663636 441 
L 260.590909 441 
z
" style="fill:#1f77b4;fill-opacity:0.5;stroke:#000000;stroke-linejoin:miter;stroke-width:0.507273;"/>
   </g>
   <g id="patch_249">
    <path clip-path="url(#pc811c53473)" d="M 265.663636 441 
L 270.736364 441 
L 270.736364 441 
L 265.663636 441 
z
" style="fill:#1f77b4;fill-opacity:0.5;stroke:#000000;stroke-linejoin:miter;stroke-width:0.507273;"/>
   </g>
   <g id="patch_250">
    <path clip-path="url(#pc811c53473)" d="M 270.736364 441 
L 275.809091 441 
L 275.809091 440.821513 
L 270.736364 440.821513 
z
" style="fill:#1f77b4;fill-opacity:0.5;stroke:#000000;stroke-linejoin:miter;stroke-width:0.507273;"/>
   </g>
   <g id="patch_251">
    <path clip-path="url(#pc811c53473)" d="M 275.809091 441 
L 280.881818 441 
L 280.881818 441 
L 275.809091 441 
z
" style="fill:#1f77b4;fill-opacity:0.5;stroke:#000000;stroke-linejoin:miter;stroke-width:0.507273;"/>
   </g>
   <g id="patch_252">
    <path clip-path="url(#pc811c53473)" d="M 280.881818 441 
L 285.954545 441 
L 285.954545 441 
L 280.881818 441 
z
" style="fill:#1f77b4;fill-opacity:0.5;stroke:#000000;stroke-linejoin:miter;stroke-width:0.507273;"/>
   </g>
   <g id="patch_253">
    <path clip-path="url(#pc811c53473)" d="M 285.954545 441 
L 291.027273 441 
L 291.027273 441 
L 285.954545 441 
z
" style="fill:#1f77b4;fill-opacity:0.5;stroke:#000000;stroke-linejoin:miter;stroke-width:0.507273;"/>
   </g>
   <g id="patch_254">
    <path clip-path="url(#pc811c53473)" d="M 291.027273 441 
L 296.1 441 
L 296.1 440.821513 
L 291.027273 440.821513 
z
" style="fill:#1f77b4;fill-opacity:0.5;stroke:#000000;stroke-linejoin:miter;stroke-width:0.507273;"/>
   </g>
   <g id="patch_255">
    <path clip-path="url(#pc811c53473)" d="M 296.1 441 
L 301.172727 441 
L 301.172727 441 
L 296.1 441 
z
" style="fill:#1f77b4;fill-opacity:0.5;stroke:#000000;stroke-linejoin:miter;stroke-width:0.507273;"/>
   </g>
   <g id="patch_256">
    <path clip-path="url(#pc811c53473)" d="M 301.172727 441 
L 306.245455 441 
L 306.245455 441 
L 301.172727 441 
z
" style="fill:#1f77b4;fill-opacity:0.5;stroke:#000000;stroke-linejoin:miter;stroke-width:0.507273;"/>
   </g>
   <g id="patch_257">
    <path clip-path="url(#pc811c53473)" d="M 306.245455 441 
L 311.318182 441 
L 311.318182 440.821513 
L 306.245455 440.821513 
z
" style="fill:#1f77b4;fill-opacity:0.5;stroke:#000000;stroke-linejoin:miter;stroke-width:0.507273;"/>
   </g>
   <g id="matplotlib.axis_3">
    <g id="xtick_6">
     <g id="line2d_11">
      <g>
       <use style="stroke:#000000;stroke-width:0.8;" x="55.743281" xlink:href="#m2d00d21638" y="441"/>
      </g>
     </g>
     <g id="text_12">
      <!-- 1.0 -->
      <g transform="translate(38.259656 458.94175)scale(0.144 -0.144)">
       <use xlink:href="#DejaVuSans-8722"/>
       <use x="83.789062" xlink:href="#DejaVuSans-49"/>
       <use x="147.412109" xlink:href="#DejaVuSans-46"/>
       <use x="179.199219" xlink:href="#DejaVuSans-48"/>
      </g>
     </g>
    </g>
    <g id="xtick_7">
     <g id="line2d_12">
      <g>
       <use style="stroke:#000000;stroke-width:0.8;" x="123.857717" xlink:href="#m2d00d21638" y="441"/>
      </g>
     </g>
     <g id="text_13">
      <!-- 0.5 -->
      <g transform="translate(106.374092 458.94175)scale(0.144 -0.144)">
       <use xlink:href="#DejaVuSans-8722"/>
       <use x="83.789062" xlink:href="#DejaVuSans-48"/>
       <use x="147.412109" xlink:href="#DejaVuSans-46"/>
       <use x="179.199219" xlink:href="#DejaVuSans-53"/>
      </g>
     </g>
    </g>
    <g id="xtick_8">
     <g id="line2d_13">
      <g>
       <use style="stroke:#000000;stroke-width:0.8;" x="191.972154" xlink:href="#m2d00d21638" y="441"/>
      </g>
     </g>
     <g id="text_14">
      <!-- 0.0 -->
      <g transform="translate(180.521904 458.94175)scale(0.144 -0.144)">
       <use xlink:href="#DejaVuSans-48"/>
       <use x="63.623047" xlink:href="#DejaVuSans-46"/>
       <use x="95.410156" xlink:href="#DejaVuSans-48"/>
      </g>
     </g>
    </g>
    <g id="xtick_9">
     <g id="line2d_14">
      <g>
       <use style="stroke:#000000;stroke-width:0.8;" x="260.08659" xlink:href="#m2d00d21638" y="441"/>
      </g>
     </g>
     <g id="text_15">
      <!-- 0.5 -->
      <g transform="translate(248.63634 458.94175)scale(0.144 -0.144)">
       <use xlink:href="#DejaVuSans-48"/>
       <use x="63.623047" xlink:href="#DejaVuSans-46"/>
       <use x="95.410156" xlink:href="#DejaVuSans-53"/>
      </g>
     </g>
    </g>
   </g>
   <g id="matplotlib.axis_4">
    <g id="ytick_5">
     <g id="line2d_15">
      <g>
       <use style="stroke:#000000;stroke-width:0.8;" x="45" xlink:href="#m41f01bdd14" y="441"/>
      </g>
     </g>
     <g id="text_16">
      <!-- 0 -->
      <g transform="translate(28.838 446.470875)scale(0.144 -0.144)">
       <use xlink:href="#DejaVuSans-48"/>
      </g>
     </g>
    </g>
    <g id="ytick_6">
     <g id="line2d_16">
      <g>
       <use style="stroke:#000000;stroke-width:0.8;" x="45" xlink:href="#m41f01bdd14" y="405.3026"/>
      </g>
     </g>
     <g id="text_17">
      <!-- 200 -->
      <g transform="translate(10.514 410.773475)scale(0.144 -0.144)">
       <use xlink:href="#DejaVuSans-50"/>
       <use x="63.623047" xlink:href="#DejaVuSans-48"/>
       <use x="127.246094" xlink:href="#DejaVuSans-48"/>
      </g>
     </g>
    </g>
    <g id="ytick_7">
     <g id="line2d_17">
      <g>
       <use style="stroke:#000000;stroke-width:0.8;" x="45" xlink:href="#m41f01bdd14" y="369.605201"/>
      </g>
     </g>
     <g id="text_18">
      <!-- 400 -->
      <g transform="translate(10.514 375.076076)scale(0.144 -0.144)">
       <use xlink:href="#DejaVuSans-52"/>
       <use x="63.623047" xlink:href="#DejaVuSans-48"/>
       <use x="127.246094" xlink:href="#DejaVuSans-48"/>
      </g>
     </g>
    </g>
    <g id="ytick_8">
     <g id="line2d_18">
      <g>
       <use style="stroke:#000000;stroke-width:0.8;" x="45" xlink:href="#m41f01bdd14" y="333.907801"/>
      </g>
     </g>
     <g id="text_19">
      <!-- 600 -->
      <g transform="translate(10.514 339.378676)scale(0.144 -0.144)">
       <use xlink:href="#DejaVuSans-54"/>
       <use x="63.623047" xlink:href="#DejaVuSans-48"/>
       <use x="127.246094" xlink:href="#DejaVuSans-48"/>
      </g>
     </g>
    </g>
    <g id="ytick_9">
     <g id="line2d_19">
      <g>
       <use style="stroke:#000000;stroke-width:0.8;" x="45" xlink:href="#m41f01bdd14" y="298.210402"/>
      </g>
     </g>
     <g id="text_20">
      <!-- 800 -->
      <g transform="translate(10.514 303.681277)scale(0.144 -0.144)">
       <defs>
        <path d="M 31.78125 34.625 
Q 24.75 34.625 20.71875 30.859375 
Q 16.703125 27.09375 16.703125 20.515625 
Q 16.703125 13.921875 20.71875 10.15625 
Q 24.75 6.390625 31.78125 6.390625 
Q 38.8125 6.390625 42.859375 10.171875 
Q 46.921875 13.96875 46.921875 20.515625 
Q 46.921875 27.09375 42.890625 30.859375 
Q 38.875 34.625 31.78125 34.625 
z
M 21.921875 38.8125 
Q 15.578125 40.375 12.03125 44.71875 
Q 8.5 49.078125 8.5 55.328125 
Q 8.5 64.0625 14.71875 69.140625 
Q 20.953125 74.21875 31.78125 74.21875 
Q 42.671875 74.21875 48.875 69.140625 
Q 55.078125 64.0625 55.078125 55.328125 
Q 55.078125 49.078125 51.53125 44.71875 
Q 48 40.375 41.703125 38.8125 
Q 48.828125 37.15625 52.796875 32.3125 
Q 56.78125 27.484375 56.78125 20.515625 
Q 56.78125 9.90625 50.3125 4.234375 
Q 43.84375 -1.421875 31.78125 -1.421875 
Q 19.734375 -1.421875 13.25 4.234375 
Q 6.78125 9.90625 6.78125 20.515625 
Q 6.78125 27.484375 10.78125 32.3125 
Q 14.796875 37.15625 21.921875 38.8125 
z
M 18.3125 54.390625 
Q 18.3125 48.734375 21.84375 45.5625 
Q 25.390625 42.390625 31.78125 42.390625 
Q 38.140625 42.390625 41.71875 45.5625 
Q 45.3125 48.734375 45.3125 54.390625 
Q 45.3125 60.0625 41.71875 63.234375 
Q 38.140625 66.40625 31.78125 66.40625 
Q 25.390625 66.40625 21.84375 63.234375 
Q 18.3125 60.0625 18.3125 54.390625 
z
" id="DejaVuSans-56"/>
       </defs>
       <use xlink:href="#DejaVuSans-56"/>
       <use x="63.623047" xlink:href="#DejaVuSans-48"/>
       <use x="127.246094" xlink:href="#DejaVuSans-48"/>
      </g>
     </g>
    </g>
    <g id="text_21">
     <!-- Count -->
     <g transform="translate(3.51925 383.10675)rotate(-90)scale(0.144 -0.144)">
      <use xlink:href="#DejaVuSans-67"/>
      <use x="69.824219" xlink:href="#DejaVuSans-111"/>
      <use x="131.005859" xlink:href="#DejaVuSans-117"/>
      <use x="194.384766" xlink:href="#DejaVuSans-110"/>
      <use x="257.763672" xlink:href="#DejaVuSans-116"/>
     </g>
    </g>
   </g>
   <g id="line2d_20">
    <path clip-path="url(#pc811c53473)" d="M 57.681818 440.803861 
L 72.976473 440.489939 
L 79.349246 440.012485 
L 88.271128 439.278149 
L 94.643901 439.05407 
L 101.016674 438.808846 
L 108.664002 438.26774 
L 118.860439 437.420287 
L 125.233212 437.24583 
L 136.704203 437.007652 
L 141.802421 436.650413 
L 146.90064 436.064721 
L 151.998858 435.238754 
L 158.371631 434.197028 
L 163.469849 433.729901 
L 167.293513 433.283529 
L 169.842622 432.68218 
L 171.117177 432.227645 
L 172.391731 431.630039 
L 173.666286 430.843441 
L 174.940841 429.803549 
L 176.215395 428.424702 
L 177.48995 426.601127 
L 178.764504 424.214872 
L 180.039059 421.152401 
L 181.313614 417.330192 
L 182.588168 412.727063 
L 183.862723 407.417536 
L 187.686386 389.839732 
L 188.960941 384.842186 
L 190.235496 381.098538 
L 191.51005 379.022448 
L 192.784605 378.86904 
L 194.059159 380.686743 
L 195.333714 384.306983 
L 196.608269 389.374471 
L 199.157378 401.891164 
L 201.706487 414.327303 
L 202.981042 419.62045 
L 204.255596 424.073437 
L 205.530151 427.667443 
L 206.804705 430.468777 
L 208.07926 432.594493 
L 209.353815 434.181486 
L 210.628369 435.36324 
L 211.902924 436.255418 
L 213.177478 436.949298 
L 215.726587 437.984557 
L 218.275697 438.759345 
L 220.824806 439.358746 
L 223.373915 439.791031 
L 227.197579 440.145727 
L 232.295797 440.272657 
L 239.943125 440.431343 
L 256.512334 440.951406 
L 266.708771 440.971322 
L 293.474418 440.941666 
L 311.318182 440.941737 
L 311.318182 440.941737 
" style="fill:none;stroke:#1f77b4;stroke-linecap:square;stroke-width:1.5;"/>
   </g>
   <g id="patch_258">
    <path d="M 45 441 
L 45 282.45 
" style="fill:none;stroke:#000000;stroke-linecap:square;stroke-linejoin:miter;stroke-width:0.8;"/>
   </g>
   <g id="patch_259">
    <path d="M 324 441 
L 324 282.45 
" style="fill:none;stroke:#000000;stroke-linecap:square;stroke-linejoin:miter;stroke-width:0.8;"/>
   </g>
   <g id="patch_260">
    <path d="M 45 441 
L 324 441 
" style="fill:none;stroke:#000000;stroke-linecap:square;stroke-linejoin:miter;stroke-width:0.8;"/>
   </g>
   <g id="patch_261">
    <path d="M 45 282.45 
L 324 282.45 
" style="fill:none;stroke:#000000;stroke-linecap:square;stroke-linejoin:miter;stroke-width:0.8;"/>
   </g>
   <g id="text_22">
    <!-- Simple -->
    <g transform="translate(159.91425 276.45)scale(0.144 -0.144)">
     <defs>
      <path d="M 53.515625 70.515625 
L 53.515625 60.890625 
Q 47.90625 63.578125 42.921875 64.890625 
Q 37.9375 66.21875 33.296875 66.21875 
Q 25.25 66.21875 20.875 63.09375 
Q 16.5 59.96875 16.5 54.203125 
Q 16.5 49.359375 19.40625 46.890625 
Q 22.3125 44.4375 30.421875 42.921875 
L 36.375 41.703125 
Q 47.40625 39.59375 52.65625 34.296875 
Q 57.90625 29 57.90625 20.125 
Q 57.90625 9.515625 50.796875 4.046875 
Q 43.703125 -1.421875 29.984375 -1.421875 
Q 24.8125 -1.421875 18.96875 -0.25 
Q 13.140625 0.921875 6.890625 3.21875 
L 6.890625 13.375 
Q 12.890625 10.015625 18.65625 8.296875 
Q 24.421875 6.59375 29.984375 6.59375 
Q 38.421875 6.59375 43.015625 9.90625 
Q 47.609375 13.234375 47.609375 19.390625 
Q 47.609375 24.75 44.3125 27.78125 
Q 41.015625 30.8125 33.5 32.328125 
L 27.484375 33.5 
Q 16.453125 35.6875 11.515625 40.375 
Q 6.59375 45.0625 6.59375 53.421875 
Q 6.59375 63.09375 13.40625 68.65625 
Q 20.21875 74.21875 32.171875 74.21875 
Q 37.3125 74.21875 42.625 73.28125 
Q 47.953125 72.359375 53.515625 70.515625 
z
" id="DejaVuSans-83"/>
      <path d="M 52 44.1875 
Q 55.375 50.25 60.0625 53.125 
Q 64.75 56 71.09375 56 
Q 79.640625 56 84.28125 50.015625 
Q 88.921875 44.046875 88.921875 33.015625 
L 88.921875 0 
L 79.890625 0 
L 79.890625 32.71875 
Q 79.890625 40.578125 77.09375 44.375 
Q 74.3125 48.1875 68.609375 48.1875 
Q 61.625 48.1875 57.5625 43.546875 
Q 53.515625 38.921875 53.515625 30.90625 
L 53.515625 0 
L 44.484375 0 
L 44.484375 32.71875 
Q 44.484375 40.625 41.703125 44.40625 
Q 38.921875 48.1875 33.109375 48.1875 
Q 26.21875 48.1875 22.15625 43.53125 
Q 18.109375 38.875 18.109375 30.90625 
L 18.109375 0 
L 9.078125 0 
L 9.078125 54.6875 
L 18.109375 54.6875 
L 18.109375 46.1875 
Q 21.1875 51.21875 25.484375 53.609375 
Q 29.78125 56 35.6875 56 
Q 41.65625 56 45.828125 52.96875 
Q 50 49.953125 52 44.1875 
z
" id="DejaVuSans-109"/>
      <path d="M 56.203125 29.59375 
L 56.203125 25.203125 
L 14.890625 25.203125 
Q 15.484375 15.921875 20.484375 11.0625 
Q 25.484375 6.203125 34.421875 6.203125 
Q 39.59375 6.203125 44.453125 7.46875 
Q 49.3125 8.734375 54.109375 11.28125 
L 54.109375 2.78125 
Q 49.265625 0.734375 44.1875 -0.34375 
Q 39.109375 -1.421875 33.890625 -1.421875 
Q 20.796875 -1.421875 13.15625 6.1875 
Q 5.515625 13.8125 5.515625 26.8125 
Q 5.515625 40.234375 12.765625 48.109375 
Q 20.015625 56 32.328125 56 
Q 43.359375 56 49.78125 48.890625 
Q 56.203125 41.796875 56.203125 29.59375 
z
M 47.21875 32.234375 
Q 47.125 39.59375 43.09375 43.984375 
Q 39.0625 48.390625 32.421875 48.390625 
Q 24.90625 48.390625 20.390625 44.140625 
Q 15.875 39.890625 15.1875 32.171875 
z
" id="DejaVuSans-101"/>
     </defs>
     <use xlink:href="#DejaVuSans-83"/>
     <use x="63.476562" xlink:href="#DejaVuSans-105"/>
     <use x="91.259766" xlink:href="#DejaVuSans-109"/>
     <use x="188.671875" xlink:href="#DejaVuSans-112"/>
     <use x="252.148438" xlink:href="#DejaVuSans-108"/>
     <use x="279.931641" xlink:href="#DejaVuSans-101"/>
    </g>
   </g>
  </g>
 </g>
 <defs>
  <clipPath id="pefffdad837">
   <rect height="158.55" width="279" x="45" y="60.48"/>
  </clipPath>
  <clipPath id="pc811c53473">
   <rect height="158.55" width="279" x="45" y="282.45"/>
  </clipPath>
 </defs>
</svg>
